<svg width="22" height="17" viewBox="0 0 22 17" fill="none" xmlns="http://www.w3.org/2000/svg">
<path d="M21.4602 2C20.6902 2.35 19.8602 2.58 19.0002 2.69C19.8802 2.16 20.5602 1.32 20.8802 0.31C20.0502 0.81 19.1302 1.16 18.1602 1.36C17.3702 0.5 16.2602 0 15.0002 0C12.6502 0 10.7302 1.92 10.7302 4.29C10.7302 4.63 10.7702 4.96 10.8402 5.27C7.28016 5.09 4.11016 3.38 2.00016 0.79C1.63016 1.42 1.42016 2.16 1.42016 2.94C1.42016 4.43 2.17016 5.75 3.33016 6.5C2.62016 6.5 1.96016 6.3 1.38016 6V6.03C1.38016 8.11 2.86016 9.85 4.82016 10.24C4.19089 10.4122 3.53026 10.4362 2.89016 10.31C3.16177 11.1625 3.6937 11.9084 4.41118 12.4429C5.12866 12.9775 5.99561 13.2737 6.89016 13.29C5.37379 14.4904 3.49416 15.1393 1.56016 15.13C1.22016 15.13 0.880161 15.11 0.540161 15.07C2.44016 16.29 4.70016 17 7.12016 17C15.0002 17 19.3302 10.46 19.3302 4.79C19.3302 4.6 19.3302 4.42 19.3202 4.23C20.1602 3.63 20.8802 2.87 21.4602 2Z" fill="#212529"/>
</svg>
