<svg xmlns="http://www.w3.org/2000/svg" xmlns:xlink="http://www.w3.org/1999/xlink" width="420" zoomAndPan="magnify" viewBox="0 0 315 89.25" height="119" preserveAspectRatio="xMidYMid meet" xmlns:v="https://vecta.io/nano"><style><![CDATA[.B{fill:#fff}.C{fill:#cc2300}.D{clip-rule:nonzero}]]></style><defs><clipPath id="A"><path d="M104.5.414h70.293V88.18H104.5zm0 0" class="D"/></clipPath><clipPath id="B"><path d="M104.5.414h70.293V88.18H104.5zm0 0" class="D"/></clipPath><clipPath id="C"><path d="M170 18h4.793v4H170zm0 0" class="D"/></clipPath><clipPath id="D"><path d="M104.5 48h8.5v10h-8.5zm0 0" class="D"/></clipPath><clipPath id="E"><path d="M164 16h10.793v11H164zm0 0" class="D"/></clipPath><path id="F" d="M231.741 59.55h1.523l3.59-.09 3.902-.359c.676 0 1.348-.223 1.887-.539.719-.539 1.078-1.211 1.078-2.02v-.043c-.227-1.75-2.109-2.02-2.828-2.109-.359-.047-.719-.047-1.031-.047-.18 0-.406 0-.586.047l-.895.043c-.719.137-1.391.18-2.199.227h-.227c-.582 0-.895-.09-1.074-.227v-.18c0-.176.043-.715.402-1.613h.047l3.992-9.918c1.168-2.691 2.648-6.641 4.309-11.305v-.047l.133-.359c.047 0 .047-.043.047-.043a25.97 25.97 0 0 0 .762-1.84c.223-.672.359-1.301.359-2.02v-.137c-.09-.762-.406-1.344-.988-1.75 0-.043-.043-.043-.043-.043-1.078-.582-2.695-.941-4.937-1.078h-.27l-4.309-.09h-4.262c-1.031.09-1.66.539-1.973 1.348v.043c-.09.227-.137.496-.137.766 0 .582.227 1.121.629 1.57 0 0 .047 0 .047.043.402.27 1.031.496 1.883.539h2.602c.676-.043 1.301-.043 1.887-.043h.539c.805.043 1.301.133 1.613.27.27.223.313.535.313.715s-.043.359-.043.629a45.28 45.28 0 0 1-.809 2.332l-4.801 12.07-2.559 6.688-.449.852c-.625 1.438-1.48 3.32-1.66 4.848v.359c0 .805.27 1.434.809 1.793l.047.047c.719.402 1.883.625 3.68.672zm0 0"/></defs><g clip-path="url(#A)" class="C"><path d="M104.27 52.973c.016-.246.07-.488.141-.719.141-.457.402-.84.664-1.07.195-.176.387-.281.547-.352a2.1 2.1 0 0 1-.281-.473 2.19 2.19 0 0 1-.176-.703c-.02-.246 0-.508.105-.754.051-.121.121-.246.211-.332.051-.055.086-.105.141-.141l.086-.055.07-.035c.332-.211.684-.352.984-.402.246-.035.453-.035.613 0l-.035-1.176a29.01 29.01 0 0 1 .246-3.648l.156-1.055.211-1.105c.105-.387.227-.773.457-1.141.211-.367.543-.719.945-.93.387-.23.809-.352 1.211-.422s.809-.086 1.195-.086c.754 0 1.473.051 2.16.121 1.367.141 2.594.402 3.594.703.844.262 1.527.543 2.039.805l-1.793-3.473c-.105-.055-.227-.125-.348-.246-.23-.191-.441-.492-.598-.859-.09-.195-.16-.387-.211-.613l-.16-.687c-.086-.453-.191-.965-.418-1.383s-.652-.758-1.16-1.16c-.527-.402-1.035-.93-1.387-1.578-.367-.652-.543-1.406-.684-2.105l-.211-1.035c-.086-.336-.176-.633-.316-.879s-.367-.473-.598-.719l-.684-.684c-.457-.457-.875-.969-1.105-1.547-.246-.562-.316-1.121-.367-1.613v-.07c-.141-.297-.316-.949-.648-1.773l-.965-2.086-1.266-2.598c-.422-.949-.738-1.895-.875-2.809l-.07-.668v-.633a3.51 3.51 0 0 1 .07-.613c.035-.191.102-.387.172-.543.281-.684.688-1.125 1.004-1.352l.227-.141c.141-.176.773-.562 1.824-1.121l1.035-.547 1.281-.578 3.16-1.281 1.859-.668c.316-.121.668-.211 1-.312l1.055-.316 1.086-.316.563-.16.578-.141 2.371-.578c3.281-.703 6.914-1.246 10.773-1.492 3.859-.211 7.547-.086 10.879.211l2.422.281c.195.02.387.055.582.07.191.035.383.07.578.09l1.121.191 1.09.191c.352.07.703.105 1.035.195l1.93.457c1.246.262 2.336.613 3.301.895.473.141.93.281 1.332.422l1.105.418c.984.387 1.633.668 1.879.844a1.29 1.29 0 0 1 .316.211c.281.227.594.633.895 1.191.156.281.281.598.402.965a7.33 7.33 0 0 1 .246 1.16c.105.844.035 1.789-.262 2.719-.316.93-.809 1.738-1.387 2.352-.281.316-.598.582-.879.809-.297.227-.598.402-.879.543-.559.281-1.035.406-1.383.441a2.89 2.89 0 0 1 .207.438c.195.508.387 1.246.371 2.105-.035.879-.371 1.648-.789 2.09-.211.207-.422.348-.582.402-.016 0-.051.016-.07.016.09.582-.332 2.406-1.016 4.512-.789 2.402-1.633 4.316-1.984 4.336.035.051.09.121.125.227.086.211.156.527.191.949.035.402 0 .945-.262 1.488-.02.035-.035.055-.055.09a5.37 5.37 0 0 1 .422-.422c1-1 2.441-2.297 4.09-3.684 2.121-1.809 4.035-3.352 5.176-4.125-.105-.105-.227-.297-.262-.543-.055-.301 0-.652.156-1 .176-.352.473-.668.879-.863s.859-.242 1.227-.141c-.07-.242-.121-.684-.211-1.227-.07-.457-.176-1-.297-1.598l-.105-.457c-.035-.156-.07-.312-.121-.488-.035-.176-.07-.387-.07-.617 0-.105.016-.227.07-.348.035-.125.086-.23.172-.336a1.6 1.6 0 0 1 .301-.281c.121-.07.281-.121.422-.121a1 1 0 0 1 .402.086c.121.055.211.125.297.211.316.316.457.648.598.949a8.73 8.73 0 0 1 .527 1.613c.016.105.051.195.07.297.121-.227.438-.578.859-1l1.176-1.156c.105-.105.227-.211.352-.332.121-.105.246-.246.402-.352.16-.125.352-.23.598-.281a.92.92 0 0 1 .789.211 1.19 1.19 0 0 1 .332.699c.02.125 0 .246-.016.371s-.07.211-.105.316c-.191.383-.457.629-.633.859-.387.457-.699.91-1 1.281l-.035.035a1.09 1.09 0 0 0 .195-.125c.453-.281 1-.578 1.594-.93.16-.086.301-.176.457-.262s.336-.211.543-.281c.211-.09.527-.141.828-.02a.95.95 0 0 1 .367.266.88.88 0 0 1 .211.367 1.63 1.63 0 0 1 .07.754c-.02.125-.055.246-.105.371-.055.105-.105.211-.16.297-.242.387-.578.668-.895.859-.332.211-.648.336-.965.457-.297.105-.543.191-.789.297-.262.105-.492.211-.703.301l1.07-.125c.246-.035.547-.07.879-.07.332.02.738.055 1.125.301.176.121.348.281.473.488s.211.477.176.738c-.02.281-.176.543-.352.719a1.66 1.66 0 0 1-.668.371c-.246.07-.473.086-.684.086s-.402-.016-.613-.035c-.387-.035-.754-.105-1.07-.141-.16-.016-.316-.035-.477-.035h-.086v.02l-.016.016c-.055.07-.09.125-.125.176-.051.07-.105.125-.156.195-.055.051-.125.105-.176.156-.07.051-.125.086-.176.141-.477.332-.965.422-1.316.352a1.7 1.7 0 0 1-.02.422 1.72 1.72 0 0 1-.684 1.07c-.367.262-.824.383-1.246.313a1.6 1.6 0 0 1-.91-.488c-.141-.16-.23-.336-.266-.477-1.246 1.301-3.754 3.617-6.633 6.285-3.949 3.648-7.211 6.668-7.844 6.859-.035.07-.07.16-.105.246-.297.668-.719 1.301-1.125 1.984s-.719 1.332-.895 1.965l-.246.949c-.035.156-.086.297-.141.438-.016.07-.051.141-.066.211-.035.07-.055.121-.09.191-.086.211-.156.441-.246.648s-.211.406-.352.512c-.121.105-.262.141-.352.156.141.422-.945 3.176-2.262 6.492-1.195 3.039-2.211 5.563-2.668 6.16a8.75 8.75 0 0 1 .859.422c.336.191.633.422.914.668a6.35 6.35 0 0 1 .402.387l.352.402a12.28 12.28 0 0 1 1.141 1.668 13.72 13.72 0 0 1 .789 1.629c.211.527.387 1.02.527 1.477.297.91.473 1.648.578 2.176.035.141.055.262.07.367.16.02.301.055.422.09.457.121.809.262 1.035.402.191-.543.422-1.105.684-1.684a22.56 22.56 0 0 1 2.703-4.492c1.125-1.477 2.422-2.773 3.895-3.562.371-.211.738-.371 1.105-.492.371-.141.758-.227 1.125-.281.738-.105 1.457-.051 2.07.09s1.16.383 1.578.648c.441.262.738.578.965.859l.16.211c.051.07.07.141.105.191.07.125.121.23.141.316.016.055.035.09.035.141.035 0 .121.051.246.176.141.156.262.422.332.789.156.738.035 1.824-.332 3.035-.738 2.457-2.387 5.582-4.492 8.793-2.125 3.23-4.301 5.965-6.109 7.758-.895.895-1.719 1.543-2.367 1.895a2.56 2.56 0 0 1-.809.297c-.105.02-.176.02-.227 0s-.07-.035-.09-.051c0-.02 0-.02.02-.035-.246-.07-.789-.543-1.512-1.371-.418-.488-.91-1.086-1.387-1.805s-.965-1.582-1.227-2.562c-.086-.316-.156-.613-.191-.93h-.055c-.191-.035-.437-.16-.703-.371s-.543-.523-.754-.93a3.1 3.1 0 0 1-.352-1.437c0-.266.055-.508.105-.738-.051-.016-.121-.051-.191-.086-.246-.141-.562-.457-.754-.949a2.06 2.06 0 0 1-.141-.844c0-.312.07-.648.211-.965.262-.629.805-1.211 1.473-1.578.035-.016.09-.035.121-.07 0-.016-.016-.016-.016-.035-.156-.352-.352-.879-.598-1.508-.262-.633-.578-1.352-1.086-2.07-.246-.352-.547-.687-.895-1a5.82 5.82 0 0 0-1.035-.703c0 .105.016.227.016.367a11.11 11.11 0 0 1-.105.949c-.035.176-.086.367-.121.578-.055.211-.125.422-.195.648-.281.895-.789 1.93-1.578 2.914a12.12 12.12 0 0 1-.613.719c-.211.23-.441.473-.617.684l-.121.16c-.035.051-.051.086-.086.141-.02.051-.055.121-.07.176s-.035.141-.055.191c-.07.281-.105.598-.141.93-.07.668-.105 1.371-.246 2.055a5.98 5.98 0 0 1-.121.508c-.035.176-.105.332-.16.492s-.141.316-.211.473c-.051.07-.086.16-.137.23s-.09.156-.141.211c-.336.488-.668.965-.879 1.367-.105.191-.176.422-.246.648s-.156.457-.227.684c-.09.266-.211.492-.371.688-.141.191-.316.367-.543.473.035.316-.086 1.035-.402 2.016-.211.652-.527 1.406-.965 2.215-.211.383-.441.824-.828 1.227-.191.191-.418.387-.719.508a1.75 1.75 0 0 1-.945.09c-.617-.141-1.055-.492-1.441-.773a14.49 14.49 0 0 1-1.121-.879c-.598-.508-1.105-1.016-1.492-1.508 0 .02 0 .02-.02.035-.07.16-.227.352-.488.492s-.633.211-1.02.141c-.402-.07-.773-.316-1.07-.633s-.473-.703-.562-1.051c-.016-.035-.016-.055-.016-.09-.07-.016-.16-.07-.266-.141-.227-.156-.508-.422-.77-.84-.266-.406-.492-.949-.598-1.598-.016-.09-.016-.195-.035-.281-.121.051-.281 0-.508-.055-.141-.035-.301-.07-.492-.105-.141-.016-.281-.016-.437-.016.016.352-.035.91-.176 1.648-.246 1.23-.773 2.914-1.652 4.617-.207.422-.437.84-.684 1.227-.227.387-.492.773-.77 1.09-.281.332-.617.613-.949.824a2.46 2.46 0 0 1-.527.246c-.176.051-.352.105-.527.121-.684.105-1.262-.105-1.578-.352s-.367-.473-.316-.508l.02-.016c-.055-.105-.09-.352-.105-.703 0-.125-.02-.266-.02-.402s.02-.316.02-.477c.016-.352.035-.734.105-1.176.035-.211.051-.437.086-.684.035-.227.09-.473.125-.738.086-.508.211-1.035.348-1.594a27.67 27.67 0 0 1 1.16-3.562c.492-1.23 1.055-2.371 1.613-3.387.301-.492.563-.969.859-1.406.141-.211.281-.422.422-.613s.281-.367.406-.543c.242-.352.508-.652.734-.914a3.41 3.41 0 0 1 .316-.367c.105-.105.195-.211.281-.301.352-.332.578-.508.633-.437 0 0 .016.016.016.035.176-.035.492.035.914.227.297.125.633.316.98.547.352.246.703.523 1.07.859.352.332.652.684.914 1.016.246.352.457.668.578.949.125.262.195.473.23.648a.43.43 0 0 1 .156.02c.07.016.125.016.176.035.105.016.211.051.316.086.191.07.352.176.473.297.035.035.055.07.07.09.02 0 .02 0 .035-.02.563-.121 1.211.02 1.738.371.262.176.492.402.648.664.09.125.16.266.211.406.02.07.055.141.07.211s.035.141.055.191a3.74 3.74 0 0 1 0 1.371c-.07.383-.211.684-.336.859-.016.035-.051.051-.07.086.09.09.195.176.301.266.559.473 1.121.84 1.543 1.141.211-.547.457-1.195.668-1.914.402-1.316.594-2.512.789-3.125-.352-.527-.598-1.086-.719-1.613-.141-.527-.176-1.02-.141-1.437.016-.387.086-.687.176-.898a3.46 3.46 0 0 1-.352-.402 6.7 6.7 0 0 1-.457-.773c-.262-.559-.473-1.156-.648-1.824-.09-.332-.16-.684-.211-1.016a13.17 13.17 0 0 0-.211-1.02c-.16-.684-.352-1.402-.562-2.125-.105-.367-.227-.719-.332-1.07-.055-.172-.105-.348-.176-.523l-.176-.492c-.262-.633-.598-1.23-.914-1.809-.332-.562-.648-1.105-.93-1.648s-.492-1.055-.668-1.527c-.348-.965-.488-1.789-.488-2.367 0-.211.016-.387.051-.512-.07-.051-.141-.105-.191-.156-.16-.16-.266-.301-.336-.457-.035-.051-.07-.141-.105-.246 0-.016-.016-.035-.016-.051-.055-.176-.09-.387-.141-.652-.016-.086-.035-.156-.051-.242s-.055-.176-.07-.266c-.035-.191-.105-.387-.16-.578-.121-.422-.281-.859-.457-1.336-.367-.93-.754-1.77-.98-2.418l-.105-.301c-.02 0-.035-.016-.035-.016-.02-.02 0-.035.016-.07-.07-.266-.105-.477-.086-.598-.246-.492-.562-1.367-.984-2.422a22.6 22.6 0 0 1-1.402-.492c-.527-.191-1.16-.402-1.859-.613s-1.492-.387-2.336-.543c-1.648-.301-3.156-.387-4.266-.422.02.578-.367 1.984-.613 3.648a40.09 40.09 0 0 0-.262 2.281c.176.02.387.09.648.211.141.07.297.16.457.301s.316.297.422.508c.246.402.352.98.121 1.527-.121.262-.297.492-.492.648-.07.07-.141.105-.227.156.141.16.281.406.473.723.176.313.371.684.582 1.105.102.207.207.438.332.664.105.23.246.492.332.789.035.16.07.316.07.492a1.1 1.1 0 0 1-.141.527c-.086.176-.211.297-.352.402s-.277.16-.437.211c-.297.07-.578.07-.844 0-.242-.07-.453-.176-.613-.316l-.035-.035c.02.125.02.281 0 .457-.016.16-.035.336-.105.527-.051.191-.156.387-.316.578-.07.105-.176.195-.277.266-.055.035-.125.07-.176.105s-.125.051-.195.07-.121.035-.191.051-.125.035-.195.035c-.141 0-.281 0-.418-.035-.281-.07-.547-.227-.723-.402-.105-.09-.156-.195-.246-.281-.016-.035-.035-.055-.051-.09-.051.02-.121.02-.176.02-.227.016-.508-.035-.809-.16-.277-.121-.578-.332-.805-.629a2.08 2.08 0 0 1-.176-.266c-.211 0-.492-.105-.773-.316-.297-.227-.562-.559-.773-.945a4.88 4.88 0 0 1-.473-1.406c-.016-.137-.035-.262-.035-.402v-.191c.055-.211.055-.266.055-.336zm0 0"/></g><path d="M129.906 34.391c-.016-.176.633-.316 1.703-.406 1.051-.102 2.527-.137 4.141-.191l4.125-.105c1.051 0 1.719.035 1.719.211 0 .086-.141.156-.402.227.016.125.035.301.035.512a9.12 9.12 0 0 1-.23 2.051c-.191.859-.559 1.898-1.352 2.828a4.4 4.4 0 0 1-1.508 1.156c-.297.141-.633.246-.965.332l-.508.09c-.09 0-.176.016-.266.016h-.262c-1.402 0-2.703-.543-3.613-1.332s-1.477-1.738-1.809-2.562-.457-1.543-.492-2.035a3.3 3.3 0 0 1 .02-.633c-.195-.035-.336-.086-.336-.156zm.738.719c.121.457.297 1.105.648 1.859.352.738.879 1.582 1.684 2.266a4.98 4.98 0 0 0 3.16 1.156h.227l.23-.016.438-.07c.281-.07.563-.16.809-.281.508-.227.945-.578 1.281-.984.352-.402.613-.84.824-1.262a6.82 6.82 0 0 0 .457-1.266c.227-.805.316-1.473.418-1.945l.105-.422c-.277.051-.613.086-1.016.121l-4.141.195-4.145.105c-.473 0-.859 0-1.141-.035.055.156.105.332.16.578zm0 0" class="C"/><g clip-path="url(#B)" class="C"><path d="M104.27 52.973c.016-.246.07-.488.141-.719.141-.457.402-.84.664-1.07.195-.176.387-.281.547-.352a2.1 2.1 0 0 1-.281-.473 2.19 2.19 0 0 1-.176-.703c-.02-.246 0-.508.105-.754.051-.121.121-.246.211-.332.051-.055.086-.105.141-.141l.086-.055.07-.035c.332-.211.684-.352.984-.402.246-.035.453-.035.613 0l-.035-1.176a29.01 29.01 0 0 1 .246-3.648l.156-1.055.211-1.105c.105-.387.227-.773.457-1.141.211-.367.543-.719.945-.93.387-.23.809-.352 1.211-.422s.809-.086 1.195-.086c.754 0 1.473.051 2.16.121 1.367.141 2.594.402 3.594.703.844.262 1.527.543 2.039.805l-1.793-3.473c-.105-.055-.227-.125-.348-.246-.23-.191-.441-.492-.598-.859-.09-.195-.16-.387-.211-.613l-.16-.687c-.086-.453-.191-.965-.418-1.383s-.652-.758-1.16-1.16c-.527-.402-1.035-.93-1.387-1.578-.367-.652-.543-1.406-.684-2.105l-.211-1.035c-.086-.336-.176-.633-.316-.879s-.367-.473-.598-.719l-.684-.684c-.457-.457-.875-.969-1.105-1.547-.246-.562-.316-1.121-.367-1.613v-.07c-.141-.297-.316-.949-.648-1.773l-.965-2.086-1.266-2.598c-.422-.949-.738-1.895-.875-2.809l-.07-.668v-.633a3.51 3.51 0 0 1 .07-.613c.035-.191.102-.387.172-.543.281-.684.688-1.125 1.004-1.352l.227-.141c.141-.176.773-.562 1.824-1.121l1.035-.547 1.281-.578 3.16-1.281 1.859-.668c.316-.121.668-.211 1-.312l1.055-.316 1.086-.316.563-.16.578-.141 2.371-.578c3.281-.703 6.914-1.246 10.773-1.492 3.859-.211 7.547-.086 10.879.211l2.422.281c.195.02.387.055.582.07.191.035.383.07.578.09l1.121.191 1.09.191c.352.07.703.105 1.035.195l1.93.457c1.246.262 2.336.613 3.301.895.473.141.93.281 1.332.422l1.105.418c.984.387 1.633.668 1.879.844a1.29 1.29 0 0 1 .316.211c.281.227.594.633.895 1.191.156.281.281.598.402.965a7.33 7.33 0 0 1 .246 1.16c.105.844.035 1.789-.262 2.719-.316.93-.809 1.738-1.387 2.352-.281.316-.598.582-.879.809-.297.227-.598.402-.879.543-.559.281-1.035.406-1.383.441a2.89 2.89 0 0 1 .207.438c.195.508.387 1.246.371 2.105-.035.879-.371 1.648-.789 2.09-.211.207-.422.348-.582.402-.016 0-.051.016-.07.016.09.582-.332 2.406-1.016 4.512-.789 2.402-1.633 4.316-1.984 4.336.035.051.09.121.125.227.086.211.156.527.191.949.035.402 0 .945-.262 1.488-.02.035-.035.055-.055.09a5.37 5.37 0 0 1 .422-.422c1-1 2.441-2.297 4.09-3.684 2.121-1.809 4.035-3.352 5.176-4.125-.105-.105-.227-.297-.262-.543-.055-.301 0-.652.156-1 .176-.352.473-.668.879-.863s.859-.242 1.227-.141c-.07-.242-.121-.684-.211-1.227-.07-.457-.176-1-.297-1.598l-.105-.457c-.035-.156-.07-.312-.121-.488-.035-.176-.07-.387-.07-.617 0-.105.016-.227.07-.348.035-.125.086-.23.172-.336a1.6 1.6 0 0 1 .301-.281c.121-.07.281-.121.422-.121a1 1 0 0 1 .402.086c.121.055.211.125.297.211.316.316.457.648.598.949a8.73 8.73 0 0 1 .527 1.613c.016.105.051.195.07.297.121-.227.438-.578.859-1l1.176-1.156c.105-.105.227-.211.352-.332.121-.105.246-.246.402-.352.16-.125.352-.23.598-.281a.92.92 0 0 1 .789.211 1.19 1.19 0 0 1 .332.699c.02.125 0 .246-.016.371s-.07.211-.105.316c-.191.383-.457.629-.633.859-.387.457-.699.91-1 1.281l-.035.035a1.09 1.09 0 0 0 .195-.125c.453-.281 1-.578 1.594-.93.16-.086.301-.176.457-.262s.336-.211.543-.281c.211-.09.527-.141.828-.02a.95.95 0 0 1 .367.266.88.88 0 0 1 .211.367 1.63 1.63 0 0 1 .07.754c-.02.125-.055.246-.105.371-.055.105-.105.211-.16.297-.242.387-.578.668-.895.859-.332.211-.648.336-.965.457-.297.105-.543.191-.789.297-.262.105-.492.211-.703.301l1.07-.125c.246-.035.547-.07.879-.07.332.02.738.055 1.125.301.176.121.348.281.473.488s.211.477.176.738c-.02.281-.176.543-.352.719a1.66 1.66 0 0 1-.668.371c-.246.07-.473.086-.684.086s-.402-.016-.613-.035c-.387-.035-.754-.105-1.07-.141-.16-.016-.316-.035-.477-.035h-.086v.02l-.016.016c-.055.07-.09.125-.125.176-.051.07-.105.125-.156.195-.055.051-.125.105-.176.156-.07.051-.125.086-.176.141-.477.332-.965.422-1.316.352a1.7 1.7 0 0 1-.02.422 1.72 1.72 0 0 1-.684 1.07c-.367.262-.824.383-1.246.313a1.6 1.6 0 0 1-.91-.488c-.141-.16-.23-.336-.266-.477-1.246 1.301-3.754 3.617-6.633 6.285-3.949 3.648-7.211 6.668-7.844 6.859-.035.07-.07.16-.105.246-.297.668-.719 1.301-1.125 1.984s-.719 1.332-.895 1.965l-.246.949c-.035.156-.086.297-.141.438-.016.07-.051.141-.066.211-.035.07-.055.121-.09.191-.086.211-.156.441-.246.648s-.211.406-.352.512c-.121.105-.262.141-.352.156.141.422-.945 3.176-2.262 6.492-1.195 3.039-2.211 5.563-2.668 6.16a8.75 8.75 0 0 1 .859.422c.336.191.633.422.914.668a6.35 6.35 0 0 1 .402.387l.352.402a12.28 12.28 0 0 1 1.141 1.668 13.72 13.72 0 0 1 .789 1.629c.211.527.387 1.02.527 1.477.297.91.473 1.648.578 2.176.035.141.055.262.07.367.16.02.301.055.422.09.457.121.809.262 1.035.402.191-.543.422-1.105.684-1.684a22.56 22.56 0 0 1 2.703-4.492c1.125-1.477 2.422-2.773 3.895-3.562.371-.211.738-.371 1.105-.492.371-.141.758-.227 1.125-.281.738-.105 1.457-.051 2.07.09s1.16.383 1.578.648c.441.262.738.578.965.859l.16.211c.051.07.07.141.105.191.07.125.121.23.141.316.016.055.035.09.035.141.035 0 .121.051.246.176.141.156.262.422.332.789.156.738.035 1.824-.332 3.035-.738 2.457-2.387 5.582-4.492 8.793-2.125 3.23-4.301 5.965-6.109 7.758-.895.895-1.719 1.543-2.367 1.895a2.56 2.56 0 0 1-.809.297c-.105.02-.176.02-.227 0s-.07-.035-.09-.051c0-.02 0-.02.02-.035-.246-.07-.789-.543-1.512-1.371-.418-.488-.91-1.086-1.387-1.805s-.965-1.582-1.227-2.562c-.086-.316-.156-.613-.191-.93h-.055c-.191-.035-.437-.16-.703-.371s-.543-.523-.754-.93a3.1 3.1 0 0 1-.352-1.437c0-.266.055-.508.105-.738-.051-.016-.121-.051-.191-.086-.246-.141-.562-.457-.754-.949a2.06 2.06 0 0 1-.141-.844c0-.312.07-.648.211-.965.262-.629.805-1.211 1.473-1.578.035-.016.09-.035.121-.07 0-.016-.016-.016-.016-.035-.156-.352-.352-.879-.598-1.508-.262-.633-.578-1.352-1.086-2.07-.246-.352-.547-.687-.895-1a5.82 5.82 0 0 0-1.035-.703c0 .105.016.227.016.367a11.11 11.11 0 0 1-.105.949c-.035.176-.086.367-.121.578-.055.211-.125.422-.195.648-.281.895-.789 1.93-1.578 2.914a12.12 12.12 0 0 1-.613.719c-.211.23-.441.473-.617.684l-.121.16c-.035.051-.051.086-.086.141-.02.051-.055.121-.07.176s-.035.141-.055.191c-.07.281-.105.598-.141.93-.07.668-.105 1.371-.246 2.055a5.98 5.98 0 0 1-.121.508c-.035.176-.105.332-.16.492s-.141.316-.211.473c-.051.07-.086.16-.137.23s-.09.156-.141.211c-.336.488-.668.965-.879 1.367-.105.191-.176.422-.246.648s-.156.457-.227.684c-.09.266-.211.492-.371.688-.141.191-.316.367-.543.473.035.316-.086 1.035-.402 2.016-.211.652-.527 1.406-.965 2.215-.211.383-.441.824-.828 1.227-.191.191-.418.387-.719.508a1.75 1.75 0 0 1-.945.09c-.617-.141-1.055-.492-1.441-.773a14.49 14.49 0 0 1-1.121-.879c-.598-.508-1.105-1.016-1.492-1.508 0 .02 0 .02-.02.035-.07.16-.227.352-.488.492s-.633.211-1.02.141c-.402-.07-.773-.316-1.07-.633s-.473-.703-.562-1.051c-.016-.035-.016-.055-.016-.09-.07-.016-.16-.07-.266-.141-.227-.156-.508-.422-.77-.84-.266-.406-.492-.949-.598-1.598-.016-.09-.016-.195-.035-.281-.121.051-.281 0-.508-.055-.141-.035-.301-.07-.492-.105-.141-.016-.281-.016-.437-.016.016.352-.035.91-.176 1.648-.246 1.23-.773 2.914-1.652 4.617-.207.422-.437.84-.684 1.227-.227.387-.492.773-.77 1.09-.281.332-.617.613-.949.824a2.46 2.46 0 0 1-.527.246c-.176.051-.352.105-.527.121-.684.105-1.262-.105-1.578-.352s-.367-.473-.316-.508l.02-.016c-.055-.105-.09-.352-.105-.703 0-.125-.02-.266-.02-.402s.02-.316.02-.477c.016-.352.035-.734.105-1.176.035-.211.051-.437.086-.684.035-.227.09-.473.125-.738.086-.508.211-1.035.348-1.594a27.67 27.67 0 0 1 1.16-3.562c.492-1.23 1.055-2.371 1.613-3.387.301-.492.563-.969.859-1.406.141-.211.281-.422.422-.613s.281-.367.406-.543c.242-.352.508-.652.734-.914a3.41 3.41 0 0 1 .316-.367c.105-.105.195-.211.281-.301.352-.332.578-.508.633-.437 0 0 .016.016.016.035.176-.035.492.035.914.227.297.125.633.316.98.547.352.246.703.523 1.07.859.352.332.652.684.914 1.016.246.352.457.668.578.949.125.262.195.473.23.648a.43.43 0 0 1 .156.02c.07.016.125.016.176.035.105.016.211.051.316.086.191.07.352.176.473.297.035.035.055.07.07.09.02 0 .02 0 .035-.02.563-.121 1.211.02 1.738.371.262.176.492.402.648.664.09.125.16.266.211.406.02.07.055.141.07.211s.035.141.055.191a3.74 3.74 0 0 1 0 1.371c-.07.383-.211.684-.336.859-.016.035-.051.051-.07.086.09.09.195.176.301.266.559.473 1.121.84 1.543 1.141.211-.547.457-1.195.668-1.914.402-1.316.594-2.512.789-3.125-.352-.527-.598-1.086-.719-1.613-.141-.527-.176-1.02-.141-1.437.016-.387.086-.687.176-.898a3.46 3.46 0 0 1-.352-.402 6.7 6.7 0 0 1-.457-.773c-.262-.559-.473-1.156-.648-1.824-.09-.332-.16-.684-.211-1.016a13.17 13.17 0 0 0-.211-1.02c-.16-.684-.352-1.402-.562-2.125-.105-.367-.227-.719-.332-1.07-.055-.172-.105-.348-.176-.523l-.176-.492c-.262-.633-.598-1.23-.914-1.809-.332-.562-.648-1.105-.93-1.648s-.492-1.055-.668-1.527c-.348-.965-.488-1.789-.488-2.367 0-.211.016-.387.051-.512-.07-.051-.141-.105-.191-.156-.16-.16-.266-.301-.336-.457-.035-.051-.07-.141-.105-.246 0-.016-.016-.035-.016-.051-.055-.176-.09-.387-.141-.652-.016-.086-.035-.156-.051-.242s-.055-.176-.07-.266c-.035-.191-.105-.387-.16-.578-.121-.422-.281-.859-.457-1.336-.367-.93-.754-1.77-.98-2.418l-.105-.301c-.02 0-.035-.016-.035-.016-.02-.02 0-.035.016-.07-.07-.266-.105-.477-.086-.598-.246-.492-.562-1.367-.984-2.422a22.6 22.6 0 0 1-1.402-.492c-.527-.191-1.16-.402-1.859-.613s-1.492-.387-2.336-.543c-1.648-.301-3.156-.387-4.266-.422.02.578-.367 1.984-.613 3.648a40.09 40.09 0 0 0-.262 2.281c.176.02.387.09.648.211.141.07.297.16.457.301s.316.297.422.508c.246.402.352.98.121 1.527-.121.262-.297.492-.492.648-.07.07-.141.105-.227.156.141.16.281.406.473.723.176.313.371.684.582 1.105.102.207.207.438.332.664.105.23.246.492.332.789.035.16.07.316.07.492a1.1 1.1 0 0 1-.141.527c-.086.176-.211.297-.352.402s-.277.16-.437.211c-.297.07-.578.07-.844 0-.242-.07-.453-.176-.613-.316l-.035-.035c.02.125.02.281 0 .457-.016.16-.035.336-.105.527-.051.191-.156.387-.316.578-.07.105-.176.195-.277.266-.055.035-.125.07-.176.105s-.125.051-.195.07-.121.035-.191.051-.125.035-.195.035c-.141 0-.281 0-.418-.035-.281-.07-.547-.227-.723-.402-.105-.09-.156-.195-.246-.281-.016-.035-.035-.055-.051-.09-.051.02-.121.02-.176.02-.227.016-.508-.035-.809-.16-.277-.121-.578-.332-.805-.629a2.08 2.08 0 0 1-.176-.266c-.211 0-.492-.105-.773-.316-.297-.227-.562-.559-.773-.945a4.88 4.88 0 0 1-.473-1.406c-.016-.137-.035-.262-.035-.402v-.191c.055-.211.055-.266.055-.336zm54.734-38.957c.227-.141.473-.332.719-.527.246-.211.492-.437.738-.719.473-.543.895-1.211 1.156-1.984.246-.77.297-1.578.227-2.281-.035-.348-.102-.684-.172-1-.09-.316-.176-.594-.281-.84-.336-.824-.668-1.352-.687-1.633-.367-.055-.965-.191-1.754-.422-.332-.086-.719-.191-1.121-.316l-1.352-.332c-.965-.23-2.055-.543-3.281-.773l-1.914-.402c-.332-.09-.684-.125-1.02-.176l-1.07-.176c-.367-.051-.734-.121-1.105-.176-.191-.035-.367-.07-.559-.086s-.387-.055-.582-.07l-2.387-.266c-3.281-.281-6.914-.402-10.723-.191-3.789.246-7.387.789-10.613 1.457l-2.352.543c-.195.051-.387.086-.562.141-.195.051-.371.105-.543.156l-1.074.301a17.57 17.57 0 0 0-1.035.297c-.332.105-.684.176-1 .301l-1.859.613c-1.191.367-2.227.805-3.156 1.156l-1.301.492-1.07.438c-.789.316-1.387.547-1.738.633-.016.02-.035.055-.051.07.281.07.805.332 1.422.879.422.383.895.875 1.316 1.508.418.613.805 1.367 1.105 2.195a8.8 8.8 0 0 1 .473 2.402c0 .09.016.191.016.281v.281.262a1.35 1.35 0 0 1-.035.281 3.77 3.77 0 0 1-.297.93c-.086.211-.191.402-.297.563.191-.09.402-.191.629-.281l.949-.402a21.11 21.11 0 0 1 1.16-.422c.824-.297 1.77-.648 2.84-.949l1.668-.488 1.824-.477c1.266-.332 2.633-.598 4.055-.895 2.879-.527 6.07-.98 9.441-1.246 3.371-.246 6.598-.262 9.527-.156 1.457.086 2.863.141 4.145.297l1.875.195 1.723.262c.277.035.543.086.805.121.125.02.266.035.387.07.125.02.246.055.367.07l1.387.281a32.71 32.71 0 0 1 1.195.266l1 .277c.684.195 1.191.371 1.492.492.211-.191.719-.422 1.352-.824zm12.809 6.934c.23-.125.527-.266.809-.371s.563-.246.824-.402c.262-.176.508-.387.668-.648l.105-.211c.035-.07.051-.125.051-.195.02-.141.02-.297-.035-.418s-.121-.195-.191-.23-.176-.035-.316.02-.281.141-.437.227l-.477.262a27.32 27.32 0 0 1-1.648.863c-.473.227-.859.418-1.141.523l.211.316c.191.301.367.613.492.895l1.086-.629zm-5.09 5.086a1.25 1.25 0 0 0 .582.266c.227.035.488-.035.719-.211s.387-.402.422-.633a1.42 1.42 0 0 0-.02-.668c-.105-.383-.281-.594-.156-.734.051-.07.156-.07.297.016s.297.246.438.512a.76.76 0 0 1 .07.191c.02 0 .035 0 .07-.02.246-.035.598-.156.949-.437.035-.035.086-.07.121-.121l.125-.125c.035-.051.07-.086.121-.141l.055-.086.035-.035v-.02l.016-.016.02-.055c.035-.051.07-.121.105-.176.016-.035.035-.066.051-.086l.125-.016c.07 0 .156-.02.227-.02h.156c.176 0 .371 0 .547.02.367.035.719.102 1.07.137s.734.055 1.016-.035c.281-.066.512-.297.512-.488.035-.195-.125-.441-.336-.582-.051-.035-.105-.07-.156-.086s-.125-.055-.195-.07c-.121-.035-.262-.051-.402-.051-.281-.02-.543 0-.824.016-.738 0-1.266-.051-1.527-.121 0 .016.02.051.02.07.105.418.086.699-.09.734-.352.09-.543-.875-1.211-1.895s-1.457-1.598-1.246-1.879c.105-.141.367-.051.719.211.176.125.352.301.547.512.121-.23.297-.527.543-.879.262-.387.563-.859.965-1.371.211-.262.422-.473.527-.699.016-.055.051-.125.051-.16.02-.051.02-.105 0-.156 0-.105-.051-.211-.105-.246s-.105-.051-.191-.035a.79.79 0 0 0-.316.156 2.95 2.95 0 0 0-.352.301c-.121.105-.246.211-.352.316a37.58 37.58 0 0 1-1.227 1.086c-.598.492-1.02.809-1.23.844.105.598.09.98-.051 1-.176.035-.352-.508-.648-1.387-.16-.437-.336-.965-.582-1.508-.121-.266-.262-.547-.437-.703-.086-.086-.156-.105-.211-.105s-.105.035-.176.105c-.035.035-.051.086-.07.141s-.035.105-.035.156c0 .125.02.266.055.422l.105.473.105.477a14.66 14.66 0 0 1 .227 1.668c.055.684.02 1.176-.07 1.402a1.67 1.67 0 0 1 .543.402 1.13 1.13 0 0 1 .301.598c.016.156-.035.262-.105.281-.176.051-.316-.191-.613-.422-.301-.246-.828-.457-1.352-.191a1.19 1.19 0 0 0-.562.543c-.125.227-.16.457-.176.633a1.81 1.81 0 0 0 .035.352c.227-.141.387-.23.508-.266.035-.156.316-.211.703-.07s.844.473 1.262.914.703.93.809 1.332.051.668-.121.684-.281-.176-.457-.453c-.07-.125-.141-.246-.23-.387-.086.121-.227.297-.418.492.086.105.207.242.383.383zm-7.809 5.723c3.703-3.422 6.809-6.281 7.703-6.793a4.64 4.64 0 0 0-.383-.488c-.352-.387-.738-.668-1.02-.844-.141-.105-.262-.176-.332-.246-.492.668-2.914 2.563-5.703 4.93l-4.125 3.598c-.633.563-1.141.984-1.457 1.195 0 .035-.016.07-.016.086-.055.266-.055.563-.105.859s-.125.598-.246.863-.281.508-.457.699a1.81 1.81 0 0 1-.613.441c-.055.016-.105.051-.16.07.02.035.02.086.035.121.07.297.07.754-.016 1.297a5.85 5.85 0 0 1-.281 1.074c.91-1.074 3.789-3.738 7.176-6.863zm-7.879 51.434a4.16 4.16 0 0 0 .648-.418c.547-.406 1.301-1.07 2.141-1.984 1.703-1.809 3.863-4.512 5.969-7.703 2.086-3.195 3.703-6.266 4.492-8.602.402-1.156.563-2.141.527-2.805-.02-.441-.141-.723-.195-.879 0 .121-.367.141-.965.422s-1.387.84-2.246 1.703c-1.719 1.699-3.684 4.492-5.457 7.789s-3.02 6.477-3.773 8.793c-.648 1.949-.945 3.301-1.141 3.684zm-3.684-5.789c.121.438.297.875.488 1.262.195.406.422.754.652 1.105.457.703.91 1.301 1.281 1.809.523.684.91 1.176 1.07 1.473 0-.543.191-1.875.719-3.684.684-2.387 1.949-5.598 3.738-8.949 1.789-3.336 3.809-6.176 5.648-7.898.93-.859 1.828-1.422 2.527-1.633.352-.105.633-.137.824-.121.09 0 .141.016.195.035-.125-.105-.301-.352-.633-.684-.227-.211-.527-.477-.93-.684s-.879-.406-1.437-.512-1.195-.121-1.844-.035a5.59 5.59 0 0 0-1 .266 5.84 5.84 0 0 0-1 .457c-1.336.734-2.582 1.945-3.668 3.387-1.105 1.418-1.965 2.93-2.633 4.352s-1.09 2.77-1.402 3.91c-.617 2.301-.703 3.773-.914 3.773-.086 0-.121-.383-.105-1.07.02-.508.086-1.211.246-2.035-.035.02-.07.055-.105.07-.281.195-.668.492-1.035.965-.367.457-.703 1.105-.859 1.879-.125.773-.07 1.668.176 2.563zm-2.879-6.793c-.105.246-.16.477-.176.703s.016.438.07.633c.105.387.281.648.422.84.016.02.035.035.051.055.055-.125.105-.246.16-.352a3.18 3.18 0 0 1 .77-.914c.281-.211.527-.316.723-.348s.297 0 .332.066c.07.176-.262.352-.648.738-.195.195-.406.457-.562.773a2.5 2.5 0 0 0-.297 1.105c0 .402.105.789.262 1.121s.352.582.543.793c.105.102.211.207.301.277-.035-.488.016-.965.105-1.418.191-.898.613-1.633 1.07-2.125.453-.508.965-.809 1.316-.93.137-.055.262-.07.367-.09a3.46 3.46 0 0 0 .086-.437c.141-.613.316-1.281.563-1.965-.246-.035-.598-.105-1.035-.176s-.93-.105-1.508-.07c-.562.035-1.195.176-1.738.473s-.965.773-1.176 1.246zm-20.074 3.371c-.16-.246-.371-.527-.598-.844-.246-.297-.527-.633-.844-.93-.332-.316-.668-.578-.98-.809s-.617-.418-.863-.559c-.348-.211-.594-.371-.699-.512-.055.105-.141.246-.266.422l-.227.336c-.086.121-.176.242-.262.383l-.652.949c-.121.176-.246.367-.367.563l-.387.613c-.281.422-.527.895-.805 1.387a31.7 31.7 0 0 0-1.582 3.297c-.473 1.211-.84 2.387-1.141 3.477-.141.543-.262 1.07-.367 1.563-.055.246-.105.473-.141.703l-.105.664c-.09.422-.121.809-.176 1.141-.035.176-.051.336-.07.477s-.035.277-.051.383c-.07.371-.125.617-.195.703.09.035.211.105.371.16.277.102.734.207 1.262.086.141-.02.262-.07.402-.121s.266-.125.406-.211c.277-.176.543-.422.789-.703.492-.578.93-1.367 1.352-2.195.84-1.648 1.367-3.262 1.684-4.437.176-.633.281-1.125.387-1.457a1.97 1.97 0 0 0-.371.121c-.172.07-.312.16-.437.23-.246.141-.422.246-.562.141s-.086-.352.195-.617a1.94 1.94 0 0 1 .543-.367 3.2 3.2 0 0 1 .773-.227 3.05 3.05 0 0 1 .805.016c.246.055.457.125.633.23a1.5 1.5 0 0 1 .246.191 4.81 4.81 0 0 1 .262-1.367c.266-.703.688-1.301 1.176-1.738.246-.211.492-.402.758-.543.121-.07.262-.125.402-.16-.09-.141-.195-.281-.297-.437zm4.035 2.844c-.02-.055-.035-.105-.035-.16-.02-.051-.035-.086-.055-.141-.035-.086-.086-.176-.141-.262-.121-.176-.277-.336-.473-.473-.332-.23-.738-.336-1.07-.301-.016.055-.051.09-.227.035-.336.09-.598.301-.773.492-.191.227-.297.457-.367.613s-.125.281-.211.281-.176-.105-.195-.332.055-.582.281-.93c.16-.246.406-.477.738-.652-.07-.016-.141-.035-.23-.051-.066-.02-.156-.02-.242-.035h-.141-.125c-.332.035-.77.281-1.176.668-.402.367-.754.875-.98 1.473a3.61 3.61 0 0 0-.211 1.754 4.17 4.17 0 0 0 .438 1.387c.156.301.316.543.438.738 0-.105 0-.211.02-.301.051-.523.211-.805.387-.77s.191.332.227.77.125 1.055.543 1.512c.211.227.457.367.688.422s.453.016.648-.035c.246-.07.402-.195.527-.23-.266-.352-.477-.684-.617-.965-.051.281-.121.457-.246.457-.176.016-.297-.297-.312-.824-.02-.266.016-.578.07-.914.051-.352.137-.719.262-1.086a6.25 6.25 0 0 1 .438-1.035c.16-.316.336-.582.492-.773.332-.422.613-.598.738-.492.141.125 0 .422-.246.859.262.246.633.703 1.121 1.176.035-.191.07-.422.09-.734.016-.336.016-.738-.07-1.141zm3.438 1.84c-.316 1.02-.664 1.898-.98 2.512s-.578.945-.738.875c-.156-.086-.051-.473.176-1.086-.492-.23-1.125-.633-1.773-1.195-.629-.523-1.141-1.105-1.422-1.559-.035-.07-.086-.125-.105-.195-.156.332-.332.719-.473 1.141-.176.543-.262 1.055-.332 1.473.016.035.035.055.07.09.227.297.527.738.945 1.227a11.85 11.85 0 0 0 1.652 1.598c.332.281.699.563 1.086.844.105.07.195.141.301.211.086.07.191.121.277.191a1.72 1.72 0 0 0 .598.246c.195.035.367.035.543-.035a1.27 1.27 0 0 0 .477-.352c.281-.297.508-.699.719-1.086.422-.754.738-1.477.98-2.09.316-.773.512-1.367.668-1.703-.035 0-.086.02-.121.02a1.18 1.18 0 0 1-.371-.055c-.227-.086-.367-.227-.473-.348-.191-.266-.227-.477-.227-.633v-.035c-.035-.211-.055-.527-.09-.879-.051-.367-.121-.789-.316-1.191-.105-.23-.262-.457-.437-.703-.105.738-.297 1.684-.633 2.719zm-8.543-31.078c.297.598.699 1.441 1.07 2.406a15.62 15.62 0 0 1 .473 1.402c.051.227.121.438.141.633.016.105.035.191.051.297s.02.195.035.281c.02.281.02.527-.016.719.086.125.211.266.367.371.262.191.648.348 1.055.242.211-.051.402-.156.578-.312.051-.035.086-.09.121-.125.02-.035.035-.035.055-.07l.105-.176c.016-.016.035-.07.051-.121l.035-.141c.02-.055.035-.09.055-.16l.035-.191c.051-.246.105-.508.176-.754l.367.824c.07.156.141.297.211.438l.105.211.051.09.035.035a1.22 1.22 0 0 0 .246.262.71.71 0 0 0 .301.141c.137.035.242.016.367-.055s.227-.172.332-.312.195-.301.266-.477a2.72 2.72 0 0 0 .176-.488c.051-.16.086-.336.105-.492.035-.16.035-.316.051-.492s.035-.352.07-.527a1.29 1.29 0 0 1 .262-.543.87.87 0 0 1 .547-.281c.191-.016.348.035.488.086.141.07.246.141.336.23a.94.94 0 0 1 .176.246c.176.316.176.492.105.543s-.211-.086-.422-.297c-.105-.105-.23-.195-.387-.23-.07-.016-.156-.035-.211-.016-.07.016-.105.051-.156.105-.09.105-.125.367-.141.699 0 .16-.02.352-.035.547a3.4 3.4 0 0 1-.125.578c-.051.191-.121.387-.211.598a4.66 4.66 0 0 1-.312.578c-.141.191-.316.387-.562.527a1.27 1.27 0 0 1-.879.121c-.422-.105-.738-.402-.945-.684l-.055-.07-.016.035-.09.105a.89.89 0 0 1-.191.191c-.266.23-.582.387-.914.457-.316.07-.648.035-.914-.07-.051-.016-.102-.035-.137-.07l.051.301c.086.523.281 1.297.648 2.191.195.457.406.949.684 1.441.266.508.598 1.035.934 1.613s.684 1.191.965 1.879c.07.172.141.348.191.523s.121.352.176.527c.121.352.227.719.332 1.09.23.734.422 1.457.582 2.176a11.09 11.09 0 0 1 .207 1.051c.055.336.125.648.195.965.156.617.352 1.195.578 1.703s.508.949.824 1.176c.16.105.301.141.457.125l.055-.02c.016 0 .035 0 .07-.016.051-.02.102-.035.156-.055.105-.035.191-.07.281-.105.367-.141.648-.262.84-.422.406-.281.492-.594.598-.559.035.016.07.102.035.262s-.141.387-.367.613-.543.422-.914.598c-.086.051-.191.086-.281.121-.051.02-.105.055-.141.07-.016.02-.051.02-.086.035l-.105.035c-.141.035-.316.055-.473.02-.105-.02-.211-.055-.316-.105a8.36 8.36 0 0 0 .016.598c.02.367.07.789.195 1.246a4.89 4.89 0 0 0 .633 1.402c.313.457.699.914.93 1.438a3.67 3.67 0 0 1 .297 1.441 3.8 3.8 0 0 1-.105.91 1.13 1.13 0 0 0 .262.246c.07.055.16.09.23.09a.32.32 0 0 0 .211-.07c.156-.105.352-.406.438-.754.055-.211.121-.441.191-.687s.141-.523.281-.789a5.52 5.52 0 0 1 .441-.773l.488-.734c.055-.07.07-.125.105-.176l.105-.16c.055-.121.125-.242.16-.367.051-.121.086-.262.121-.402l.105-.441c.125-.594.16-1.242.23-1.945a7.99 7.99 0 0 1 .176-1.09c.031-.105.051-.191.086-.281a2.37 2.37 0 0 1 .121-.297c.055-.086.105-.191.176-.281.055-.07.125-.156.176-.227.23-.281.457-.512.668-.738a8.93 8.93 0 0 0 .578-.668c.719-.875 1.211-1.77 1.527-2.578.07-.211.16-.387.227-.578s.125-.371.176-.527l.281-.859c.055-.176.105-.336.16-.441-.371-.121-.719-.207-1.09-.207-.437-.02-.875.086-1.262.227-.773.316-1.371.844-1.844 1.297-.473.477-.824.898-1.09 1.176s-.437.422-.508.371 0-.266.195-.613c.191-.336.488-.828.965-1.352a7.36 7.36 0 0 1 .84-.828 5.45 5.45 0 0 1 1.195-.719c.457-.191.98-.297 1.527-.281s1.105.16 1.613.387c1.035.477 1.824 1.23 2.367 2.02s.879 1.578 1.105 2.246a10.04 10.04 0 0 1 .422 1.578c.527-.211 1.055-.281 1.547-.316.316-.016.594-.016.875.02-.016-.07-.051-.125-.086-.195-.195-.488-.441-1.211-.773-2.086s-.738-1.914-1.332-2.965c-.301-.527-.652-1.055-1.07-1.562l-.316-.371c-.105-.121-.23-.227-.352-.332a4.61 4.61 0 0 0-.809-.598c-.578-.352-1.211-.578-1.824-.684-.633-.105-1.246-.07-1.824.055-1.16.242-2.105.805-2.844 1.352-.191.137-.352.277-.508.402-.16.141-.316.262-.437.387-.141.121-.266.246-.387.352a3.44 3.44 0 0 0-.316.297c-.387.352-.613.543-.684.492s.07-.336.383-.754c.09-.105.176-.23.281-.352l.352-.406.438-.437.527-.457c.371-.316.824-.613 1.336-.895.367-.191.77-.367 1.211-.508-.09-.07-.195-.141-.301-.246-.121-.105-.246-.227-.387-.367s-.277-.301-.418-.457c-.281-.352-.598-.754-.879-1.246-.562-.984-1.07-2.281-1.156-3.809a7.87 7.87 0 0 1 .191-2.371 8.22 8.22 0 0 1 .965-2.352c.895-1.508 2.266-2.629 3.684-3.176s2.863-.578 3.984-.332 1.949.738 2.441 1.156c.121.105.227.211.316.301.07.07.121.141.172.211.055-.07.125-.141.195-.246a2.56 2.56 0 0 0 .156-.402c.055-.195.09-.422.176-.687.02-.07.035-.121.07-.191l.055-.195c.035-.121.07-.262.105-.402l.227-.965c.191-.703.543-1.422.949-2.125s.824-1.332 1.105-1.93.473-1.176.594-1.648c.141-.527.176-.93.23-1.211-.211.02-.406 0-.527-.051-.246-.09-.332-.211-.297-.281.035-.09.156-.09.352-.125a1.51 1.51 0 0 0 .719-.246c.281-.156.543-.453.699-.859.09-.211.16-.437.195-.684.035-.262.051-.543.105-.859.035-.16.07-.316.121-.492.055-.156.141-.316.211-.457.16-.262.332-.473.422-.648.191-.387.246-.809.262-1.176s0-.668.02-.895c.016-.121.035-.211.051-.262-.121 0-.297-.035-.523-.105-.441-.141-1.074-.422-1.703-.965s-1.281-1.352-1.633-2.406c-.367-1.051-.437-2.316-.09-3.562.09-.281.195-.562.316-.809-.07.02-.141.02-.227.02-.227 0-.457-.055-.648-.16a1.27 1.27 0 0 1-.441-.367c-.121-.156-.191-.332-.207-.473a1.82 1.82 0 0 1-1.004.703c-.648.172-1.262-.02-1.578-.281-.156-.125-.262-.266-.316-.387-.035-.125-.016-.211.055-.266.141-.102.316 0 .578.125s.668.227 1.055.121c.402-.121.684-.418.84-.664.176-.23.266-.422.438-.406.09.02.141.07.176.195.02.086.02.191-.016.332.141.07.156.332.438.598.07.07.16.141.266.176s.211.07.348.07a1.2 1.2 0 0 0 .809-.352 1.94 1.94 0 0 0 .473-.859c.09-.301.105-.598.141-.859.035-.527.09-.863.266-.879s.297.316.352.879a2.99 2.99 0 0 1-.02.664c.227-.156.473-.281.719-.387.125-.051.246-.086.371-.137l.367-.105a3.74 3.74 0 0 1 1.387-.055c.844.125 1.473.473 1.809.809.176.176.297.316.348.422.07-.09.141-.176.211-.301a3.72 3.72 0 0 0 .371-.719 3.42 3.42 0 0 0 .191-1c.02-.738-.156-1.422-.246-1.914-.051-.262-.086-.492-.07-.648a.23.23 0 0 1-.141-.105c-.332-.016-.824-.086-1.457-.176l-1-.176-1.191-.176-1.387-.211-.367-.051-.387-.055c-.266-.035-.527-.07-.789-.086l-1.703-.211c-.598-.07-1.211-.105-1.859-.156-1.281-.141-2.652-.176-4.109-.266-2.895-.086-6.07-.07-9.406.176-3.176.246-6.191.668-8.93 1.141a3.44 3.44 0 0 1 .051.195c.02.051.02.105.035.156 0 .055.02.125.02.191.016.141.016.281.016.441-.016.156-.016.332-.035.527s-.051.383-.086.594-.105.441-.176.668-.16.457-.266.703c-.051.121-.102.246-.172.367-.035.07-.055.125-.09.191-.035.055-.07.125-.105.176l-.211.371c-.086.121-.176.246-.246.367-.051.07-.086.125-.141.195a1.36 1.36 0 0 0-.141.172c-.102.125-.191.246-.297.352-.422.477-.949.914-1.527 1.281-.578.387-1.262.668-1.98.844s-1.441.262-2.125.227-1.352-.141-1.965-.332c-1.23-.367-2.211-1.035-2.879-1.719-.684-.703-1.035-1.406-1.246-1.879-.086-.262-.141-.457-.156-.598a15.89 15.89 0 0 1-.687.16c-.066.016-.121.035-.172.051-.105 0-.16-.035-.16-.07v-.035c.02-.086.125-.156.266-.352.156-.227.348-.578.523-1.07.09-.246.16-.523.211-.805.02-.07.02-.125.02-.211v-.492c0-.09-.02-.176-.02-.262-.035-.703-.176-1.457-.437-2.215s-.613-1.453-1-2.035-.809-1.051-1.176-1.437c-.562-.562-1-.914-1.16-1.125-.035.035-.07.07-.105.125-.211.281-.508.684-.699 1.262a1.77 1.77 0 0 0-.105.457 1.53 1.53 0 0 0-.035.508c0 .195.016.387.016.582.035.191.055.402.09.613.141.824.438 1.719.84 2.633s.859 1.773 1.246 2.562.703 1.543.93 2.176c0 .016.02.035.02.051v-.281c.016-.523.07-.824.156-.84.09 0 .176.281.266.805.035.266.086.598.121.965.055.371.07.809.141 1.266s.16.949.367 1.402c.195.457.563.895 1 1.316.211.211.457.441.688.684.121.125.227.246.352.387s.242.281.332.457c.211.352.316.719.387 1.07.086.352.141.719.211 1.07.141.703.297 1.371.594 1.914.301.563.723 1 1.195 1.367.246.195.492.387.738.617.227.227.453.488.594.77.281.578.352 1.125.441 1.598.07.473.141.879.246 1.211s.262.598.402.789c.07.09.121.141.176.211l.016-.016c.055-.055.105-.125.195-.176.086-.07.176-.125.281-.211.438-.301 1.176-.598 2.121-.684.949-.07 2.125.066 3.23.699 1.121.613 2.086 1.719 2.613 3.07.266.688.422 1.371.457 2.055.051.684-.035 1.352-.176 1.965-.297 1.23-.914 2.211-1.527 2.914s-1.246 1.156-1.703 1.402c-.07.035-.141.07-.191.105-.121.105-.086.176-.051.246zm-12.039-5.246c-.914-.035-1.477-.055-1.492-.211-.02-.176.684-.332 1.824-.387s2.738.035 4.457.352a25.05 25.05 0 0 1 2.406.578c.719.23 1.367.457 1.895.703.387.176.699.332.945.492-.262-.648-.559-1.352-.91-2.07l-.582-1.195c-.543-.191-1.367-.508-2.488-.789-.984-.246-2.176-.492-3.512-.613a20.09 20.09 0 0 0-2.105-.105c-.703 0-1.457.07-2.035.402-.301.176-.527.402-.684.684-.176.281-.281.617-.371.949s-.141.684-.211 1.035l-.156 1.02c-.176 1.332-.281 2.543-.316 3.563l-.086 2.805c.281.07.613.125.965.141.559.035 1.051-.016 1.438-.051-.07-.211-.105-.527-.105-.914-.016-.738.055-1.754.211-2.859.262-1.598.613-2.965.914-3.527zm-6.32 11.004c0 .105.02.211.035.316a3.89 3.89 0 0 0 .387 1.176c.176.348.371.613.563.805.051.055.105.105.156.16v-.035a1.93 1.93 0 0 1 .07-.809c.07-.227.195-.387.301-.457.105-.086.191-.105.262-.051.141.105.07.332.035.648a2.16 2.16 0 0 0 .02.563c.035.211.121.422.262.613a1.36 1.36 0 0 0 .527.422 1.62 1.62 0 0 0 .438.141c-.07-.266-.086-.512-.086-.723.016-.332.105-.594.211-.734.102-.16.227-.211.297-.16.156.105.051.387.105.895.035.246.086.547.227.844.035.07.09.141.125.211.051.055.086.141.156.176.105.121.246.191.387.227s.297.02.438-.016a.62.62 0 0 0 .336-.211c.086-.105.156-.227.211-.352.051-.141.086-.262.121-.402.051-.266.105-.477.156-.633a.35.35 0 0 1 .09-.156c-.07-.125-.105-.246-.125-.352-.051-.23 0-.352.09-.371s.176.07.281.211c.121.141.262.336.508.477.125.07.262.141.438.176a.87.87 0 0 0 .477-.02c.332-.105.488-.332.367-.773-.051-.207-.176-.437-.281-.664l-.316-.668-.508-1.141c-.141-.316-.227-.598-.262-.789-.02 0-.02 0-.02.016a3.69 3.69 0 0 1-1.086.281c-.633.07-1.035-.07-1.004-.246.02-.176.352-.227.898-.352a5.97 5.97 0 0 0 .895-.297c.316-.141.613-.367.734-.668.07-.141.09-.316.07-.473a1.13 1.13 0 0 0-.141-.437c-.137-.281-.367-.457-.594-.613-.141-.105-.281-.176-.387-.266-.035.367-.07.668-.125.859.211 0 .352.02.387.141.07.16-.156.352-.578.492s-1.02.211-1.684.156-1.266-.191-1.652-.402c-.402-.211-.578-.457-.473-.598s.332-.086.703.02c.051.016.105.035.156.051-.051-.281-.086-.648-.121-1.105-.141.035-.301.07-.492.141-.227.09-.492.195-.754.387l-.055.035-.035.035c-.016.02-.035.035-.051.055a.33.33 0 0 0-.09.156c-.051.121-.07.281-.051.438s.051.336.121.477a1.61 1.61 0 0 0 .246.402c.195.246.422.422.633.563.422.297.719.473.648.648-.07.156-.422.141-.945-.125-.195-.086-.387-.227-.598-.402-.125.125-.281.262-.437.438-.176.211-.352.477-.441.828a3.05 3.05 0 0 0-.105.578c0 .051 0 .105-.016.156-.055-.016-.055.035-.055.09zm0 0"/></g><g clip-path="url(#C)" class="B"><path d="M170.023 20.387l.211.316c.191.297.367.613.492.895l1.07-.633a7.06 7.06 0 0 1 .805-.367c.281-.105.563-.246.828-.406.262-.176.508-.383.664-.648l.105-.211c.035-.07.055-.121.055-.191.016-.141.016-.301-.035-.422s-.125-.191-.195-.227-.176-.035-.316.016-.277.141-.437.23l-.473.262-1.652.859c-.437.246-.824.438-1.121.527zm0 0"/></g><path d="M107.883 49.57c.281.07.613.121.965.141.563.035 1.055-.02 1.441-.055-.07-.211-.105-.527-.105-.91-.02-.738.051-1.758.211-2.863.242-1.629.594-3 .895-3.562-.914-.035-1.477-.051-1.492-.207-.02-.176.684-.336 1.824-.387s2.738.035 4.457.352a25.05 25.05 0 0 1 2.406.578l1.895.699a7.89 7.89 0 0 1 .945.492l-.91-2.07-.582-1.191c-.543-.195-1.367-.512-2.488-.789-.984-.246-2.176-.492-3.512-.617a20.09 20.09 0 0 0-2.105-.105c-.703 0-1.457.07-2.035.406-.301.176-.527.402-.684.684-.176.281-.281.613-.371.945l-.211 1.035-.156 1.02-.316 3.563-.07 2.844zm0 0" class="B"/><g clip-path="url(#D)" class="B"><path d="M104.969 53.184v.16c0 .105.02.211.035.316a3.89 3.89 0 0 0 .387 1.176c.176.348.371.613.563.805l.156.16v-.035a1.93 1.93 0 0 1 .07-.809c.07-.227.195-.387.301-.457.105-.086.191-.105.262-.051.141.105.07.332.035.648a2.16 2.16 0 0 0 .02.563c.035.211.121.422.262.613a1.36 1.36 0 0 0 .527.422 1.62 1.62 0 0 0 .438.141c-.07-.266-.086-.512-.086-.723.016-.332.105-.594.211-.734.102-.16.227-.211.297-.16.156.105.051.387.105.895.035.246.086.547.227.844.035.07.09.141.125.211.051.055.086.141.156.176.105.121.246.191.387.227s.297.02.438-.016a.62.62 0 0 0 .336-.211c.086-.105.156-.227.211-.352.051-.141.086-.262.121-.402.051-.266.105-.477.156-.633a.35.35 0 0 1 .09-.156c-.07-.125-.105-.246-.125-.352-.051-.23 0-.352.09-.371s.176.07.281.211c.121.141.262.336.508.477.125.07.262.141.438.176a.87.87 0 0 0 .477-.02c.332-.105.488-.332.367-.773-.051-.207-.176-.437-.281-.664l-.316-.668-.508-1.141c-.141-.316-.227-.598-.262-.789-.02 0-.02 0-.02.016a3.69 3.69 0 0 1-1.086.281c-.633.07-1.035-.07-1.004-.246.02-.176.352-.227.898-.352a5.97 5.97 0 0 0 .895-.297c.316-.141.613-.367.734-.668.07-.141.09-.316.07-.473a1.13 1.13 0 0 0-.141-.437c-.137-.281-.367-.457-.594-.613l-.387-.266-.125.859c.211 0 .352.02.387.141.07.16-.156.352-.578.492s-1.02.211-1.684.156-1.266-.191-1.652-.402c-.402-.211-.578-.457-.473-.598s.332-.086.703.02l.156.051c-.051-.281-.086-.648-.121-1.105l-.492.141c-.227.09-.492.195-.754.387l-.055.035-.035.035c-.016.02-.035.035-.051.055a.33.33 0 0 0-.09.156c-.051.121-.07.281-.051.438s.051.336.121.477a1.61 1.61 0 0 0 .246.402c.195.246.422.422.633.563.422.297.719.473.648.648-.07.156-.422.141-.945-.125-.195-.086-.387-.227-.598-.402l-.437.438c-.176.211-.352.477-.441.828a3.05 3.05 0 0 0-.105.578c-.07-.02-.07.035-.07.086zm0 0"/></g><path d="M113.605 87.371c.086.035.211.105.367.156.281.105.738.211 1.262.086.141-.016.266-.066.406-.121s.262-.121.402-.211c.281-.176.543-.422.789-.703.492-.578.93-1.367 1.352-2.191a22.68 22.68 0 0 0 1.684-4.441l.387-1.457c-.141.035-.262.07-.367.125-.176.07-.316.156-.437.227-.246.141-.422.246-.562.141s-.09-.352.191-.613c.141-.141.316-.262.547-.367s.488-.176.77-.23c.281-.035.563-.016.809.02.246.051.457.121.633.227.105.07.176.125.246.195a4.6 4.6 0 0 1 .262-1.371 4.41 4.41 0 0 1 1.176-1.738c.246-.211.492-.402.754-.543.125-.07.262-.121.402-.156l-.277-.406-.598-.84a9.61 9.61 0 0 0-.844-.93c-.332-.316-.668-.582-.98-.809l-.863-.562c-.348-.211-.594-.367-.699-.508-.055.105-.141.246-.266.422l-.227.332-.262.387-.652.945-.367.563-.387.613c-.281.422-.527.898-.805 1.387a31.78 31.78 0 0 0-1.582 3.301 35.81 35.81 0 0 0-1.141 3.473l-.367 1.563-.141.703-.105.668c-.09.422-.121.805-.176 1.141-.035.176-.051.332-.07.473l-.051.387c-.07.332-.141.578-.211.668zm0 0" class="C"/><path d="M122.801 78.805a4.17 4.17 0 0 0 .438 1.387c.156.301.316.543.438.738 0-.105 0-.211.02-.301.051-.523.211-.805.387-.77s.191.332.227.77.125 1.055.543 1.512c.211.227.457.367.688.422s.453.016.648-.035c.246-.07.402-.195.527-.23-.266-.352-.477-.684-.617-.965-.051.281-.121.457-.246.457-.176.016-.297-.297-.312-.824-.02-.266.016-.578.07-.914a6.09 6.09 0 0 1 .262-1.086 6.25 6.25 0 0 1 .438-1.035 4.37 4.37 0 0 1 .492-.773c.332-.422.613-.598.738-.492.141.125 0 .422-.246.859.262.246.633.703 1.121 1.176a6.07 6.07 0 0 0 .09-.734c.016-.336.016-.738-.07-1.141a.46.46 0 0 1-.035-.16l-.055-.141c-.035-.086-.086-.176-.141-.262-.121-.176-.277-.336-.473-.473-.332-.23-.738-.336-1.07-.301-.016.055-.051.09-.227.035-.336.09-.598.301-.773.492-.191.227-.297.457-.367.613s-.125.281-.211.281-.176-.105-.195-.332.055-.582.281-.93c.16-.246.406-.477.738-.652l-.23-.051c-.066-.02-.156-.02-.242-.035h-.141-.125c-.332.035-.77.281-1.176.668-.402.367-.754.875-.98 1.473-.23.613-.281 1.227-.211 1.754zm3.387 1.859a.29.29 0 0 0 .07.09l.945 1.227a11.85 11.85 0 0 0 1.652 1.598l1.086.844.301.211c.086.07.191.121.277.191a1.72 1.72 0 0 0 .598.246.95.95 0 0 0 .543-.035 1.27 1.27 0 0 0 .477-.352c.281-.297.508-.699.719-1.086a17.17 17.17 0 0 0 .98-2.09l.668-1.703c-.035 0-.086.02-.121.02a1.18 1.18 0 0 1-.371-.055 1.13 1.13 0 0 1-.473-.352 1.03 1.03 0 0 1-.227-.629v-.035c-.035-.211-.055-.527-.09-.879-.051-.367-.121-.789-.316-1.191-.105-.23-.262-.457-.437-.703-.07.703-.262 1.648-.578 2.703-.316 1.016-.668 1.895-.984 2.508s-.578.949-.734.879c-.16-.09-.055-.473.172-1.09-.488-.227-1.121-.629-1.77-1.191-.633-.527-1.141-1.105-1.422-1.562-.035-.07-.09-.121-.105-.191a9.68 9.68 0 0 0-.473 1.141c-.23.559-.316 1.07-.387 1.488zm0 0" class="B"/><path d="M151.035 83.191c.176-.086.387-.227.668-.418.543-.406 1.297-1.07 2.141-1.984 1.703-1.809 3.859-4.512 5.965-7.703 2.09-3.195 3.703-6.266 4.492-8.602.406-1.156.563-2.141.527-2.805-.016-.441-.141-.723-.191-.879 0 .121-.371.141-.965.422s-1.387.84-2.246 1.703c-1.723 1.699-3.687 4.492-5.461 7.789s-3.016 6.477-3.77 8.793l-1.16 3.684zm0 0" class="C"/><path d="M144.367 71.945c.105.387.281.648.422.84.016.02.035.035.051.055l.16-.352a3.18 3.18 0 0 1 .77-.914c.281-.211.527-.316.723-.348s.297 0 .332.066c.07.176-.262.352-.648.738-.195.195-.406.457-.562.773a2.5 2.5 0 0 0-.297 1.105c0 .402.105.789.262 1.121s.352.582.543.793l.301.277c-.035-.488.016-.965.105-1.418.191-.898.613-1.633 1.07-2.125.453-.508.965-.809 1.316-.93.137-.055.262-.07.367-.09a3.46 3.46 0 0 0 .086-.437c.141-.613.316-1.281.563-1.965l-1.035-.176c-.437-.07-.93-.105-1.508-.07-.562.035-1.195.176-1.738.473s-.965.754-1.176 1.23c-.105.246-.16.473-.176.699 0 .246.016.457.07.652zm0 0" class="B"/><path d="M147.352 77.402c.121.438.297.875.488 1.262.195.406.422.754.652 1.105l1.281 1.809 1.07 1.473c0-.543.191-1.875.719-3.684.684-2.387 1.949-5.598 3.738-8.949 1.789-3.336 3.809-6.176 5.648-7.898.93-.859 1.828-1.422 2.527-1.633.352-.105.633-.137.824-.121.09 0 .141.016.195.035-.125-.105-.301-.352-.633-.684-.227-.211-.527-.477-.93-.684s-.879-.406-1.437-.512-1.195-.121-1.844-.035a5.59 5.59 0 0 0-1 .266 5.84 5.84 0 0 0-1 .457c-1.336.734-2.582 1.945-3.668 3.387-1.105 1.418-1.965 2.93-2.633 4.352s-1.09 2.77-1.402 3.91c-.617 2.301-.703 3.773-.914 3.773-.086 0-.121-.383-.105-1.07.02-.508.086-1.211.246-2.035-.035.02-.07.055-.105.07-.281.195-.668.492-1.035.965-.367.457-.703 1.105-.859 1.879-.125.773-.07 1.668.176 2.563zm0 0" class="C"/><path d="M107.461 8.262c.281.07.809.332 1.422.875.422.387.895.879 1.316 1.512.422.613.809 1.367 1.105 2.191.281.824.438 1.648.473 2.406 0 .086.02.191.02.277v.281.266c0 .086-.02.191-.035.281-.07.367-.176.664-.297.93a3.38 3.38 0 0 1-.301.559l.633-.277.949-.406 1.156-.422 2.844-.945 1.668-.492 1.824-.473 4.055-.895 9.441-1.246c3.367-.246 6.598-.266 9.527-.16l4.141.301 1.879.191 1.719.262.809.125c.121.016.262.035.387.07.121.016.246.051.367.07l1.387.281 1.191.262 1 .281 1.492.492c.246-.195.773-.406 1.387-.809.23-.141.473-.332.719-.527.246-.211.492-.437.738-.719a6.02 6.02 0 0 0 1.16-1.984c.242-.77.297-1.578.227-2.281-.035-.348-.105-.684-.176-1-.086-.316-.176-.594-.281-.84-.332-.824-.668-1.352-.684-1.633-.367-.055-.965-.195-1.754-.422l-1.125-.316-1.352-.332-3.281-.773-1.914-.402c-.332-.09-.684-.125-1.016-.176l-1.07-.176-1.105-.176-.562-.086-.578-.07-2.387-.266c-3.281-.281-6.914-.402-10.723-.191a77.51 77.51 0 0 0-10.617 1.457l-2.352.543c-.191.051-.387.086-.562.141-.191.051-.367.105-.543.156l-1.07.301c-.352.086-.703.191-1.035.297s-.684.176-1 .297l-1.859.617c-1.195.367-2.23.805-3.16 1.156l-1.297.492-1.07.438c-.793.316-1.387.547-1.738.633-.055 0-.07.02-.09.055zm0 0" class="B"/><g clip-path="url(#E)" class="B"><path d="M164.23 23.07c0 .141.02.246.035.352.23-.141.387-.227.512-.262.035-.16.316-.211.699-.07s.844.473 1.266.91.703.93.809 1.336.051.664-.125.684-.281-.176-.457-.457l-.227-.387c-.09.125-.23.301-.422.492.09.09.211.227.387.367.156.125.352.23.578.266s.492-.035.719-.211.387-.402.422-.633a1.42 1.42 0 0 0-.016-.668c-.105-.383-.281-.594-.16-.734.055-.07.16-.07.301.016s.297.246.438.512c.035.07.051.121.07.191.016 0 .035 0 .07-.02.246-.035.598-.156.945-.437.035-.035.09-.07.125-.121l.121-.125a.98.98 0 0 1 .125-.141l.051-.086.035-.035v-.02l.02-.016.016-.055c.035-.051.07-.121.105-.176.02-.035.035-.066.055-.086l.121-.016c.07 0 .16-.02.23-.02h.156l.543.02 1.07.137c.352.035.738.055 1.02-.035.281-.066.508-.297.508-.488.035-.195-.121-.441-.332-.582-.055-.035-.105-.07-.16-.086s-.121-.055-.191-.07c-.125-.035-.262-.051-.402-.051-.281-.02-.547 0-.828.016-.734 0-1.262-.051-1.523-.121 0 .016.016.051.016.07.105.418.09.699-.086.734-.352.09-.547-.875-1.211-1.895s-1.457-1.598-1.246-1.879c.105-.141.367-.051.719.211.176.125.352.301.543.512a8.91 8.91 0 0 1 .543-.879l.965-1.371c.211-.262.422-.473.527-.699.02-.055.055-.125.055-.16.016-.051.016-.105 0-.156 0-.105-.055-.211-.105-.246s-.105-.051-.195-.035-.211.07-.316.156a2.65 2.65 0 0 0-.348.301l-.352.316-1.23 1.086c-.594.492-1.016.809-1.227.844.105.598.086.98-.055 1-.176.035-.348-.508-.648-1.387l-.578-1.508c-.125-.266-.266-.547-.437-.703-.09-.086-.16-.105-.211-.105s-.105.035-.176.105c-.035.035-.055.086-.07.141s-.035.105-.035.156a1.93 1.93 0 0 0 .051.422l.105.473.105.477c.125.633.195 1.191.23 1.668.051.684.016 1.176-.07 1.402a1.67 1.67 0 0 1 .543.402c.191.211.281.441.297.598s-.035.262-.105.281c-.176.051-.316-.191-.613-.422-.297-.246-.824-.457-1.352-.191-.262.121-.457.332-.562.543-.121.246-.156.473-.176.648zm0 0"/></g><g class="B"><path d="M151.738 38.621c.91-1.09 3.789-3.738 7.176-6.863 3.703-3.422 6.809-6.281 7.703-6.793a4.64 4.64 0 0 0-.383-.488 4.92 4.92 0 0 0-1.02-.844c-.141-.105-.262-.176-.332-.246-.492.668-2.914 2.563-5.703 4.93l-4.125 3.598c-.633.563-1.141.984-1.457 1.195 0 .035-.016.07-.016.086-.055.266-.055.563-.105.859a3.51 3.51 0 0 1-.246.863 2.7 2.7 0 0 1-.457.699 1.81 1.81 0 0 1-.613.441c-.055.016-.105.051-.16.07.02.035.02.086.035.121.07.297.07.754-.016 1.297-.055.336-.141.703-.281 1.074zm-45.347-28.324c.02-.16.07-.316.105-.457.195-.578.492-.984.703-1.266.035-.035.07-.086.105-.121.156.211.598.563 1.156 1.121.371.387.793.863 1.176 1.441s.758 1.262 1 2.035a8.01 8.01 0 0 1 .441 2.211c0 .086.016.176.016.262v.492c0 .09 0 .141-.016.211-.035.281-.125.563-.211.809-.176.492-.367.859-.527 1.07-.141.191-.246.281-.262.352v.035c.016.035.051.07.156.07.055 0 .105-.02.176-.055.176-.016.402-.07.684-.156a2.99 2.99 0 0 0 .16.594c.211.492.559 1.195 1.246 1.879.664.684 1.664 1.352 2.875 1.719.617.195 1.281.301 1.969.336.699.035 1.418-.055 2.121-.23.719-.176 1.387-.473 1.984-.84.578-.371 1.105-.809 1.527-1.281.105-.105.211-.246.297-.352.055-.055.105-.125.141-.176.051-.051.086-.121.141-.191l.246-.371.211-.367a1.39 1.39 0 0 1 .105-.176l.086-.191.176-.371.262-.699.176-.668.09-.598.035-.527-.02-.437c0-.07-.016-.121-.016-.191-.02-.055-.02-.105-.035-.16l-.055-.191 8.934-1.141a94.59 94.59 0 0 1 9.406-.176l4.105.262 1.859.16 1.703.207.789.09.387.051.371.055 1.383.211 1.195.176 1 .176 1.457.176c.016.051.07.086.141.105-.02.156.016.367.07.648.105.508.281 1.191.246 1.91a3.58 3.58 0 0 1-.195 1.004c-.105.297-.227.543-.367.719-.07.121-.16.211-.211.297-.051-.105-.176-.262-.352-.422-.352-.316-.965-.684-1.809-.805a3.71 3.71 0 0 0-1.383.051c-.125.02-.246.07-.371.105-.121.055-.246.09-.367.141a5.53 5.53 0 0 0-.719.387 2.82 2.82 0 0 0 .016-.668c-.051-.578-.176-.895-.352-.879s-.227.371-.262.879c-.02.262-.055.563-.141.859s-.227.613-.473.859a1.2 1.2 0 0 1-.809.352c-.121 0-.246-.016-.352-.07a.69.69 0 0 1-.262-.176c-.281-.262-.301-.523-.441-.594a.78.78 0 0 0 .02-.336c-.035-.121-.086-.176-.176-.191-.176-.02-.262.176-.437.402-.16.23-.441.543-.844.668-.402.105-.809 0-1.051-.125-.266-.105-.441-.227-.582-.121-.07.051-.086.141-.051.262s.141.266.316.387c.316.266.93.457 1.578.281a1.98 1.98 0 0 0 1-.703c.035.16.105.316.211.477.105.141.246.262.438.367a1.37 1.37 0 0 0 .652.156c.066 0 .137 0 .227-.016a6.17 6.17 0 0 0-.316.809 5.83 5.83 0 0 0 .09 3.563c.367 1.051 1 1.875 1.629 2.402a4.98 4.98 0 0 0 1.703.965c.227.07.402.105.527.105-.02.07-.035.156-.055.262l-.016.898c-.02.367-.07.789-.262 1.176-.09.191-.266.383-.422.648-.09.141-.16.297-.211.457s-.09.332-.125.488l-.105.863a2.74 2.74 0 0 1-.191.684c-.176.422-.437.699-.703.859-.281.156-.543.211-.719.246-.191.016-.316.035-.352.121-.035.07.055.211.301.281.141.055.313.07.523.055-.035.277-.086.699-.227 1.211-.121.488-.316 1.051-.598 1.648s-.699 1.227-1.105 1.93-.754 1.422-.945 2.125l-.23.965-.105.402-.051.191a.98.98 0 0 1-.07.195c-.09.281-.125.508-.176.684-.055.191-.105.316-.16.402-.07.105-.141.195-.191.246-.051-.051-.105-.121-.176-.211l-.316-.297c-.473-.422-1.297-.914-2.437-1.16a6.97 6.97 0 0 0-3.984.336c-1.437.543-2.789 1.684-3.684 3.176-.457.754-.773 1.563-.969 2.352a7.98 7.98 0 0 0-.191 2.367 8.93 8.93 0 0 0 1.16 3.809 8.1 8.1 0 0 0 .875 1.246c.141.176.281.336.422.457l.387.367.297.246a7.57 7.57 0 0 0-1.211.512c-.508.277-.945.578-1.332.895l-.527.457-.437.438-.352.402-.281.352c-.316.438-.437.703-.387.754.07.055.301-.141.684-.492.105-.086.211-.191.316-.297l.387-.352.438-.387.512-.402c.734-.543 1.684-1.105 2.84-1.352a5.29 5.29 0 0 1 1.828-.051c.629.105 1.262.332 1.824.684a4.54 4.54 0 0 1 .809.598l.348.332.316.367c.422.512.773 1.035 1.07 1.563.617 1.055 1.02 2.09 1.336 2.965l.77 2.09c.035.07.055.141.09.191a4.69 4.69 0 0 0-.879-.016c-.492.035-1.016.121-1.543.316-.07-.387-.195-.93-.422-1.582-.227-.664-.562-1.453-1.105-2.246s-1.332-1.543-2.367-2.016c-.527-.23-1.07-.371-1.617-.387s-1.07.105-1.527.281a4.65 4.65 0 0 0-1.191.719 5.47 5.47 0 0 0-.844.824 8.73 8.73 0 0 0-.965 1.352c-.191.352-.262.563-.191.613s.246-.086.508-.367l1.09-1.176c.473-.473 1.07-1 1.84-1.301.387-.156.809-.242 1.266-.227.352.02.719.09 1.086.211a3.88 3.88 0 0 0-.156.438l-.281.859-.176.527-.227.578a9.68 9.68 0 0 1-1.527 2.582c-.176.227-.371.438-.578.668l-.668.734-.176.23c-.055.086-.105.191-.176.281-.051.102-.07.191-.121.297l-.09.281c-.086.367-.141.734-.176 1.086l-.227 1.949c-.035.141-.055.297-.105.438-.035.141-.09.281-.125.406-.051.141-.105.242-.156.367l-.105.156c-.035.055-.055.105-.105.176l-.492.738c-.156.246-.316.492-.437.773-.141.281-.211.559-.281.789l-.191.684c-.09.352-.281.648-.441.754-.07.055-.121.07-.211.07a.42.42 0 0 1-.227-.086c-.105-.07-.191-.176-.262-.246.051-.211.105-.527.105-.914 0-.402-.07-.91-.301-1.437s-.613-.984-.93-1.441-.508-.945-.633-1.402a5.99 5.99 0 0 1-.191-1.246c-.02-.227-.02-.437-.02-.598a.98.98 0 0 0 .316.105c.16.035.316.02.477-.016l.211.016c.031-.016.066-.016.086-.035.051-.016.105-.035.141-.07.105-.035.191-.086.281-.121.367-.176.684-.367.91-.598s.336-.457.371-.613.016-.246-.035-.262c-.105-.035-.195.277-.598.559-.211.141-.492.281-.844.422l-.281.105-.156.055c-.035.016-.051.016-.07.016l-.051.02a.59.59 0 0 1-.457-.125c-.316-.227-.598-.668-.824-1.176s-.422-1.086-.582-1.703a8.43 8.43 0 0 1-.191-.965c-.051-.352-.121-.699-.211-1.051l-.578-2.176-.336-1.09-.172-.527-.195-.523c-.281-.703-.633-1.316-.965-1.879l-.93-1.613-.684-1.441a10.19 10.19 0 0 1-.648-2.191l-.055-.301c.055.02.09.055.141.07a1.59 1.59 0 0 0 .914.07 2.05 2.05 0 0 0 .91-.457c.07-.051.141-.121.195-.191l.086-.105.02-.035c.016-.02 0 0 0 0l.051.07c.211.297.508.578.949.684.281.09.629.035.875-.121.246-.141.422-.336.563-.527s.227-.387.316-.578a3.87 3.87 0 0 0 .211-.598c.051-.191.086-.387.121-.578l.035-.547c0-.312.055-.594.141-.699.035-.055.09-.09.16-.105s.141-.02.211.016c.156.035.277.141.383.23.211.191.352.352.422.297s.07-.227-.105-.543c-.035-.09-.105-.16-.176-.246-.086-.09-.191-.176-.332-.23-.141-.066-.297-.102-.492-.086a.87.87 0 0 0-.543.281 1.13 1.13 0 0 0-.266.543c-.051.176-.051.352-.066.527l-.055.492a2.48 2.48 0 0 1-.105.492l-.176.488c-.07.16-.156.336-.262.477s-.211.262-.336.313a.45.45 0 0 1-.367.055c-.105-.02-.211-.07-.297-.141a1.13 1.13 0 0 1-.246-.262l-.035-.035-.055-.09-.105-.211-.211-.437-.367-.824-.176.754-.035.191c-.016.07-.035.105-.051.16l-.035.141c-.02.051-.035.105-.055.121l-.105.176a.21.21 0 0 1-.051.07c-.035.055-.09.09-.125.125-.176.156-.383.262-.578.313-.402.105-.789-.051-1.051-.242-.16-.125-.281-.246-.371-.371.035-.191.035-.422.02-.719-.02-.086-.02-.176-.035-.281l-.055-.297a7.35 7.35 0 0 0-.141-.633 14.47 14.47 0 0 0-.473-1.402l-1.07-2.406-.105-.211.191-.105c.457-.246 1.074-.699 1.703-1.402.613-.703 1.211-1.684 1.527-2.914a5.93 5.93 0 0 0 .176-1.965 6.97 6.97 0 0 0-.457-2.055c-.543-1.352-1.492-2.457-2.613-3.07a5.9 5.9 0 0 0-3.23-.703c-.945.09-1.684.387-2.121.688-.105.07-.211.141-.281.211-.09.07-.141.121-.195.176 0 0 0 .016-.016.016-.055-.051-.125-.121-.176-.211-.141-.191-.281-.457-.402-.789s-.176-.719-.246-1.211c-.07-.473-.16-1.02-.441-1.598a2.53 2.53 0 0 0-.594-.773c-.23-.227-.492-.418-.738-.613-.473-.367-.895-.824-1.195-1.367s-.473-1.211-.594-1.914l-.211-1.07c-.09-.352-.195-.738-.387-1.07a3.56 3.56 0 0 0-.332-.457l-.352-.387-.684-.684c-.441-.437-.793-.859-1-1.316s-.301-.945-.371-1.402l-.141-1.266-.121-.965c-.09-.523-.176-.824-.266-.805-.086 0-.141.297-.156.84v.281c0-.016-.02-.035-.02-.051-.227-.652-.543-1.387-.93-2.176l-1.246-2.562c-.402-.914-.699-1.809-.84-2.633l-.09-.613-.016-.582.086-.594zm35.781 31.953c.211.125.563.23 1.02.211a2.55 2.55 0 0 0 1.473-.559 2.82 2.82 0 0 0 .633-.723c.035-.07.09-.141.125-.227l.035-.07c.031 0 .086.035.137.055l.301.086c.191.035.402.035.598.016.191-.035.383-.102.543-.191.156-.105.297-.211.402-.352.457-.527.578-1.121.578-1.598s-.07-.824-.156-1.051-.156-.352-.246-.352c-.086.016-.141.156-.156.387l-.055.965a2.41 2.41 0 0 1-.141.598 1.81 1.81 0 0 1-.332.559.74.74 0 0 1-.266.211.77.77 0 0 1-.297.105.95.95 0 0 1-.332 0l-.16-.051c-.016-.02-.051-.02-.07-.035-.035-.02-.07-.035-.105-.07a.48.48 0 0 1-.086-.125c-.07-.086-.156-.227-.246-.348l-.246-.371-.227.965-.02.055-.016.051-.035.105-.035.09-.02.035c-.016.051-.051.105-.086.176-.125.207-.281.402-.457.543-.352.297-.754.438-1.09.492-.699.105-1.156-.07-1.227.086-.035.09.035.211.262.332zm1.125-12.547c.367-.437.613-.945.789-1.473.332-1.055.332-2.16.16-3.211-.195-1.055-.582-2.09-1.23-2.949-.332-.422-.719-.824-1.211-1.105-.473-.281-1.051-.422-1.633-.332-.559.105-1.07.422-1.437.84s-.613.914-.789 1.422c-.352 1.035-.371 2.125-.23 3.195.176 1.051.527 2.105 1.176 2.984.336.438.723.84 1.211 1.141s1.09.453 1.688.367c.594-.105 1.121-.457 1.508-.879zm-13.02 4.844c-.035.125-.035.336-.02.633.035.492.156 1.211.492 2.035s.895 1.773 1.809 2.563 2.211 1.332 3.613 1.332h.262c.09 0 .176-.016.266-.016a4.72 4.72 0 0 0 .508-.09c.332-.086.668-.172.965-.332a4.4 4.4 0 0 0 1.508-1.156c.793-.93 1.16-1.969 1.352-2.828a9.12 9.12 0 0 0 .23-2.051 3.76 3.76 0 0 0-.035-.512c.262-.07.402-.141.402-.227-.016-.176-.668-.211-1.719-.211l-4.125.105-4.141.191c-1.055.09-1.703.23-1.703.406-.035.07.105.121.336.156zm-1.547-8.457c.176 1.051.527 2.105 1.176 2.984.336.438.719.84 1.211 1.141a2.58 2.58 0 0 0 1.703.367c.598-.105 1.121-.457 1.492-.879.387-.437.613-.945.789-1.473.332-1.055.332-2.16.156-3.211-.191-1.055-.578-2.09-1.246-2.949-.332-.422-.719-.824-1.211-1.105-.473-.281-1.051-.422-1.629-.332-.562.086-1.07.422-1.441.84s-.613.914-.789 1.441c-.332 1.035-.367 2.121-.211 3.176zm-11.687-.02a2.02 2.02 0 0 0 .789.965 1.59 1.59 0 0 0 .758.266c.277.035.578-.035.84-.16a2.25 2.25 0 0 0 .914-.789 3 3 0 0 0 .387-.945c.121-.598.086-1.035.016-1.281l-.387-.02c-.086.246-.141.668-.281 1.141a3.02 3.02 0 0 1-.312.719c-.16.23-.371.422-.633.547a.96.96 0 0 1-.93-.055c-.281-.176-.457-.422-.598-.648s-.227-.457-.316-.598c-.086-.156-.176-.227-.262-.211s-.141.125-.141.316c-.02.176.016.441.156.754zm0 0"/><path d="M130.484 34.566c.055.121.105.297.16.543.121.457.297 1.105.648 1.859.352.738.879 1.582 1.684 2.266a4.98 4.98 0 0 0 3.16 1.156h.227l.23-.016.438-.07c.281-.07.563-.16.809-.281.508-.227.945-.578 1.281-.984.352-.402.613-.84.824-1.262a6.82 6.82 0 0 0 .457-1.266c.227-.805.316-1.473.418-1.945l.105-.422c-.277.051-.613.086-1.016.121l-4.141.195-4.145.105c-.453.035-.84.035-1.141 0zm0 0"/></g><path d="M142.172 42.25c.211.125.563.23 1.02.211a2.55 2.55 0 0 0 1.473-.559 2.82 2.82 0 0 0 .633-.723c.035-.07.09-.141.125-.227l.035-.07c.031 0 .086.035.137.055l.301.086c.191.035.402.035.598.016.191-.035.383-.102.543-.191.156-.105.297-.211.402-.352.457-.527.578-1.121.578-1.598s-.07-.824-.156-1.051-.156-.352-.246-.352c-.086.016-.141.156-.156.387l-.055.965a2.41 2.41 0 0 1-.141.598 1.81 1.81 0 0 1-.332.559.74.74 0 0 1-.266.211.77.77 0 0 1-.297.105.95.95 0 0 1-.332 0l-.16-.051c-.016-.02-.051-.02-.07-.035-.035-.02-.07-.035-.105-.07a.48.48 0 0 1-.086-.125c-.07-.086-.156-.227-.246-.348l-.246-.371-.227.965-.02.055-.016.051-.035.105-.035.09-.02.035c-.016.051-.051.105-.086.176-.125.207-.281.402-.457.543-.352.297-.754.438-1.09.492-.699.105-1.156-.07-1.227.086-.035.09.035.211.262.332zm-25.285-16.949a2.15 2.15 0 0 0 .156.77 2.02 2.02 0 0 0 .789.965 1.59 1.59 0 0 0 .758.266c.277.035.578-.035.84-.16a2.25 2.25 0 0 0 .914-.789 3 3 0 0 0 .387-.945c.121-.598.086-1.035.016-1.281l-.387-.02c-.086.246-.141.668-.281 1.141a3.02 3.02 0 0 1-.312.719c-.16.23-.371.422-.633.547a.96.96 0 0 1-.93-.055c-.281-.176-.457-.422-.598-.648s-.227-.457-.316-.598c-.086-.156-.176-.227-.262-.211-.105.02-.141.125-.141.301zm12.074-2.387c.176-.512.418-1.02.789-1.441s.875-.734 1.438-.84c.563-.09 1.16.051 1.633.332.492.281.879.668 1.211 1.105.668.859 1.035 1.895 1.246 2.949.176 1.051.176 2.156-.16 3.211-.172.527-.402 1.035-.789 1.473-.367.441-.895.773-1.492.879-.594.086-1.211-.07-1.699-.367s-.895-.703-1.211-1.141c-.652-.898-1-1.934-1.176-2.984s-.141-2.141.211-3.176zm.277 3.105c.195.98.547 1.949 1.141 2.738.301.387.652.734 1.055.965s.859.332 1.297.262.828-.332 1.141-.668c.316-.348.527-.789.688-1.242.316-.934.352-1.969.211-2.949-.16-.984-.492-1.965-1.09-2.773-.297-.402-.648-.754-1.051-1a2.2 2.2 0 0 0-1.145-.316c.934.281 1.703 1.438 1.934 2.914l-1.758.262 1.828.719c-.055 1.582-.828 2.828-1.879 2.949-1.07.105-2.07-.98-2.422-2.527-.02.211 0 .441.051.668zm0 0" class="C"/><path d="M129.152 25.316c.016.23.051.477.086.703.195.98.547 1.949 1.141 2.738.301.387.652.734 1.055.965s.859.332 1.297.262.828-.332 1.141-.668c.316-.348.527-.789.688-1.242.316-.934.352-1.969.211-2.949-.16-.984-.492-1.965-1.09-2.773-.297-.402-.648-.754-1.051-1a2.2 2.2 0 0 0-1.145-.316c.934.281 1.703 1.438 1.934 2.914l-1.758.262 1.828.719c-.055 1.582-.828 2.828-1.879 2.949-1.09.09-2.09-1-2.457-2.562zm0 0" class="B"/><path d="M137.926 22.895c.176-.508.422-1.016.789-1.422.371-.418.879-.734 1.441-.84.563-.09 1.156.051 1.633.332.488.281.875.668 1.211 1.105.664.859 1.035 1.895 1.227 2.949.176 1.051.176 2.156-.156 3.211-.176.527-.406 1.035-.793 1.473-.367.441-.895.773-1.488.879-.598.086-1.211-.07-1.687-.367-.488-.301-.895-.703-1.211-1.141-.648-.898-1-1.934-1.176-2.984-.156-1.055-.121-2.16.211-3.195zm.281 3.105c.195.984.543 1.949 1.141 2.738.297.387.648.738 1.055.965s.859.336 1.297.266.824-.336 1.141-.684.527-.793.684-1.246c.316-.934.352-1.969.211-2.949-.156-.984-.492-1.965-1.086-2.773-.301-.402-.652-.773-1.07-1-.352-.211-.738-.316-1.141-.316.93.281 1.699 1.438 1.93 2.914l-1.754.262 1.824.719c-.055 1.582-.824 2.828-1.879 2.934s-2.07-.984-2.422-2.527c0 .246.035.473.07.699zm0 0" class="C"/><path d="M138.121 25.316c.016.23.051.457.086.703.195.98.543 1.949 1.141 2.738.297.387.648.734 1.055.965s.859.332 1.297.262.824-.332 1.141-.684.527-.789.684-1.246c.316-.93.352-1.965.211-2.949-.156-.98-.492-1.965-1.086-2.773-.301-.402-.652-.77-1.07-1a2.23 2.23 0 0 0-1.141-.312c.93.277 1.699 1.438 1.93 2.91l-1.754.266 1.824.719c-.055 1.578-.824 2.824-1.879 2.93-1.07.105-2.07-.98-2.437-2.527zm0 0" class="B"/><g class="C"><path d="M18.832 59.28h.539c.898 0 1.613-.27 2.109-.852.492-.676 1.031-2.828 1.031-4.801V48.24l-.043-1.523.402-.09.539 1.434.492 1.258.359 1.031c.672 1.93 1.078 3.32 1.93 4.98.898 1.797 1.793 2.918 2.918 3.457.984.359 2.602.852 4.172-.09l.223-.18c.496-.27 1.391-.719.855-2.109-.449-1.348-.945-1.301-1.348-1.168-.629.27-1.078-.27-1.57-.941-.359-.492-.672-1.121-.941-1.75-.227-.629-.449-1.211-.539-1.75-.137-.539-.582-2.02-.988-3.187-.09-.445-.359-.805-.492-1.254l-.629-1.93c2.199-1.391 3.949-3.098 4.938-4.891l.043-.18c.762-1.391 1.121-2.918 1.301-4.578.047-.27.047-.582.047-.898 0-1.254-.316-2.555-.809-3.766-.629-1.617-1.75-3.008-3.277-4.129-1.57-1.258-3.723-2.109-6.191-2.691a14.48 14.48 0 0 0-2.738-.27c-.941 0-1.793.09-2.555.313-.766.27-1.391.629-1.84 1.121-.406.449-.766 1.078-.766 1.75v1.211c0 .359-.09.719-.09 1.168v3.098l.047 1.883v.27l.043 5.203.047 3.055v.313l.043 3.992-.043 3.996-.047 1.344-.09 2.199v.809c0 1.211.227 2.152.629 2.914.496.855 1.258 1.617 2.289 1.617zm3.59-26.922v-.047l.09-2.602v-.719l-.043-.895c.043-.227.223-.316.445-.406.09 0 .137-.043.137-.043.402 0 .762.09 1.434.27 2.828 1.074 4.578 3.051 4.895 5.43v.852c0 .809-.137 1.48-.406 2.289-.582 1.57-1.703 3.094-3.543 4.305-1.527.898-2.156.945-2.336.945h-.043c-.316 0-.492-.227-.582-.449v-2.781l-.047-1.93.047-2.199-.047-2.02zm26.699 27.641c.582 0 1.074-.09 1.48-.227 7.539-2.285 7.895-13.773 7.895-20.641v-1.93c0-1.703-.09-3.363-.09-4.844v-.047l-.043-3.59v-1.391c0-.312 0-.715-.047-1.121-.09-2.469-1.301-2.824-2.016-2.824h-.047c-1.258 0-1.883.535-2.062 1.434-.18.672-.27 1.211-.27 1.75v.359l.043 5.027-.133 12.605c-.137 2.379-.316 4.621-.809 7.27-.359 1.977-2.062 2.781-2.062 2.781h-.047c-1.523 0-2.109-2.734-2.871-10.004-.047-.359-.047-.719-.047-1.031l-.086-4.129v-.047c0-.625-.047-1.301-.047-1.84v-5.562c0-.312.047-.719.047-1.168v-.043c0-.582.133-1.258.133-1.93v-1.031c0-1.258-.312-2.246-.762-2.961-.539-.945-1.391-1.48-2.516-1.48h-.043c-1.301 0-2.242.492-2.781 1.57v.043c-.359.941-.586 1.887-.586 2.871v2.469c0 1.48-.09 3.008-.09 4.578a121.72 121.72 0 0 0 .316 8.48c.09 1.344.449 6.055 1.84 10.453.629 1.977 1.48 3.637 2.602 4.758.852.984 1.887 1.391 3.098 1.391zm19.07-.719h.043c2.063 0 3.277-1.078 3.547-3.098l.09-1.57c0-.27 0-.582-.047-.895-.133-3.5-.223-10.5-.223-14.898v-1.703l3.141 8.121c.715 1.57 1.434 3.41 2.152 5.473v.047l.137.266c0 .047 0 .047.043.09l2.02 6.059c.539 1.66 1.078 2.422 3.23 2.109h.852c1.121 0 1.391-2.062 1.527-2.559.27-1.164.18-2.469.223-3.859.09-2.152.137-4.531.137-7.133v-2.422c0-2.781-.18-5.969-.359-9.02 0-.762-.047-1.57-.09-2.332-.047-.719-.09-2.875-.09-3.637v-1.168c0-.402 0-.805-.047-1.254-.043-.719-.18-1.301-.449-1.707-.355-.582-.852-.852-1.523-.852-2.152 0-2.691 1.121-2.738 2.109-.043.223-.043.449-.043.719 0 .18.043.402.043.672v.09c0 2.828.719 7 .719 9.738v.043l-.043 8.84v.18c0 .492.043 1.57 0 2.063L74.156 31.01l-.312-.715a18.66 18.66 0 0 1-.402-1.258l-.137-.27c-.898-2.422-1.93-5.16-4.801-5.25-1.703 0-2.828 1.031-3.141 2.961-.09.629-.137 1.258-.137 1.797v3.723l.047 5.383.09 10.051-.047 5.387c-.043.27-.043.582-.043.852-.047.359-.047.762-.047 1.168a11.26 11.26 0 0 0 .047 1.211c.18 1.973 1.168 3.23 2.918 3.23zm125.813 0h.539c.898 0 1.613-.27 2.109-.852.492-.676 1.031-2.828 1.031-4.801l-.043-7.047c1.121-.359 2.465-.984 3.723-1.793 2.242-1.437 3.992-3.32 4.98-5.25l.043-.18c.676-1.391 1.035-2.918 1.168-4.578.047-.27.047-.582.047-.898 0-1.254-.27-2.555-.719-3.766a9.27 9.27 0 0 0-2.961-4.129c-1.437-1.258-3.367-2.109-5.609-2.691-.852-.18-1.66-.27-2.469-.27-.852 0-1.613.09-2.332.313-.676.27-1.258.629-1.66 1.121-.359.449-.676 1.078-.676 1.75v1.211l-.09 1.168v3.098l.047 1.883v.27l.043 5.203.047 3.055v.313l.043 3.992-.043 3.996-.047 1.344-.09 2.199v.809c0 1.211.227 2.152.629 2.914.496.855 1.258 1.617 2.289 1.617zm3.727-19.293l.043-.766v-.043c0-.227 0-.492.043-.672V38.1l.047-3.723-.133-5.07v-.359c0-.27.043-.492.086-.672.047-.359.18-.496.359-.586.09 0 .137-.043.137-.043.313 0 .629.09 1.121.27 2.199 1.074 3.59 3.051 3.813 5.43v.852c0 .809-.09 1.48-.312 2.289a8.97 8.97 0 0 1-2.738 4.305c-1.211.898-1.703.945-1.84.945h-.043c-.359-.047-.496-.449-.539-.766s-.043-.625-.043-.984zm19.067 19.293h.539c.898 0 1.613-.27 2.109-.852.492-.676 1.031-2.828 1.031-4.801l-.043-11.621V38.46l-.047-6.238.09-2.602v-.719c-.133-1.57.047-2.645-1.031-4.125-.496-.586-1.211-.855-2.109-.855h-.539c-.852 0-1.48.496-2.02 1.125-.312.402-.539.941-.672 1.57-.137.582-.227 1.164-.227 1.883v3.098l.047 1.883v.27l.043 5.25.047 3.008v.355l.043 3.996-.043 3.992-.047 1.348-.09 2.242v.762c0 1.211.227 2.199.629 2.961.496.855 1.258 1.617 2.289 1.617zm0 0"/><use xlink:href="#F"/><use xlink:href="#F" x="24.454"/><path d="M278.989 59.28c1.121 0 2.063-.359 2.691-1.078.539-.625.898-1.523 1.031-2.691l.629-4.801 7.719-.852.672 6.234a4.1 4.1 0 0 0 .672 1.84c.359.496.809.719 1.438.719h.449c1.031-.312 1.703-.988 1.883-2.062.09-.496.137-.941.137-1.48l-.047-.988-.18-1.57c-.492-4.668-1.121-10.453-2.199-15.66-1.254-6.281-2.824-10.23-4.801-12.203-1.078-.898-2.062-1.301-3.094-1.301-.18 0-.406 0-.629.043-1.258.18-2.199.988-3.051 2.469-1.348 2.914-2.559 7.27-3.727 13.461-.984 5.113-1.75 10.59-2.422 15.75-.047.359-.047.672-.047.941 0 .762.137 1.348.406 1.883.539 1.035 1.613 1.305 2.469 1.348zm5.07-12.879c.852-5.383 2.195-12.383 3.051-16.422l.09-.043c.043.09.133.223.27.582 1.211 2.961 2.332 10.5 3.004 15.031l.047.223zm0 0"/></g></svg>